<svg data-v-fde0c5aa="" xmlns="http://www.w3.org/2000/svg" viewBox="0 0 300 300" class="iconLeft"><!----><defs data-v-fde0c5aa=""><!----></defs><rect data-v-fde0c5aa="" fill="#323835" x="0" y="0" width="300px" height="300px" class="logo-background-square"></rect><defs data-v-fde0c5aa=""><!----></defs><g data-v-fde0c5aa="" id="fef75f9f-a9af-4a4c-999a-5faea0d5f66e" fill="#FFFFFF" transform="matrix(4.33733744990322,0,0,4.33733744990322,115.21966663599608,126.14464557668504)"><path d="M3.00 0.81L3.00 0.81L3.00 4.56C3.00 4.82 3.21 5.03 3.46 5.03L6.27 5.03C6.52 5.03 6.73 4.82 6.73 4.56L6.73 0.81C6.73 0.56 6.52 0.35 6.27 0.35C6.01 0.35 5.80 0.56 5.80 0.81L5.80 4.09L3.93 4.09L3.93 0.81C3.93 0.56 3.72 0.35 3.46 0.35C3.21 0.35 3.00 0.56 3.00 0.81ZM6.73 10.18L6.73 10.18L6.73 6.43C6.73 6.17 6.52 5.96 6.27 5.96L3.46 5.96C3.21 5.96 3.00 6.17 3.00 6.43L3.00 10.18C3.00 10.43 3.21 10.64 3.46 10.64C3.72 10.64 3.93 10.43 3.93 10.18L3.93 6.90L5.80 6.90L5.80 10.18C5.80 10.43 6.01 10.64 6.27 10.64C6.52 10.64 6.73 10.43 6.73 10.18ZM2.06 10.18L2.06 10.18L2.06 0.81C2.06 0.56 1.85 0.35 1.60 0.35C1.33 0.35 1.12 0.56 1.12 0.81L1.12 10.18C1.12 10.43 1.33 10.64 1.60 10.64C1.85 10.64 2.06 10.43 2.06 10.18ZM7.67 0.81L7.67 0.81L7.67 10.18C7.67 10.43 7.88 10.64 8.13 10.64C8.40 10.64 8.61 10.43 8.61 10.18L8.61 0.81C8.61 0.56 8.40 0.35 8.13 0.35C7.88 0.35 7.67 0.56 7.67 0.81ZM13.68 10.18L13.68 10.18L13.68 0.81C13.68 0.56 13.47 0.35 13.22 0.35C12.95 0.35 12.74 0.56 12.74 0.81L12.74 10.18C12.74 10.43 12.95 10.64 13.22 10.64C13.47 10.64 13.68 10.43 13.68 10.18ZM11.80 10.18L11.80 10.18L11.80 0.81C11.80 0.56 11.59 0.35 11.34 0.35C11.07 0.35 10.86 0.56 10.86 0.81L10.86 10.18C10.86 10.43 11.07 10.64 11.34 10.64C11.59 10.64 11.80 10.43 11.80 10.18ZM16.86 10.18L16.86 10.18L16.86 0.81C16.86 0.56 16.66 0.36 16.39 0.36C16.14 0.36 15.93 0.56 15.93 0.81L15.93 10.18C15.93 10.43 16.14 10.65 16.39 10.65C16.66 10.65 16.86 10.43 16.86 10.18ZM24.50 10.18L24.50 10.18L24.50 0.81C24.50 0.56 24.29 0.36 24.02 0.36C23.77 0.36 23.56 0.56 23.56 0.81L23.56 10.18C23.56 10.43 23.77 10.65 24.02 10.65C24.29 10.65 24.50 10.43 24.50 10.18ZM22.72 9.91L22.72 9.91L18.65 4.09C18.51 3.86 18.20 3.81 18.00 3.98C17.86 4.06 17.81 4.20 17.81 4.35L17.81 10.18C17.81 10.43 18.00 10.64 18.26 10.64C18.52 10.64 18.73 10.43 18.73 10.18L18.73 5.84L21.95 10.44C22.11 10.65 22.39 10.71 22.61 10.57C22.81 10.40 22.86 10.12 22.72 9.91ZM17.71 1.09L17.71 1.09L21.77 6.92C21.92 7.13 22.20 7.18 22.41 7.03C22.55 6.94 22.62 6.79 22.62 6.64L22.62 0.81C22.62 0.56 22.41 0.36 22.16 0.36C21.91 0.36 21.69 0.56 21.69 0.81L21.69 5.17L18.47 0.56C18.33 0.35 18.03 0.28 17.82 0.45C17.61 0.59 17.56 0.87 17.71 1.09ZM32.93 2.23L32.93 2.23L30.58 2.23C30.32 2.23 30.11 2.44 30.11 2.70L30.11 10.16C30.11 10.43 30.32 10.64 30.58 10.64C30.84 10.64 31.05 10.43 31.05 10.16L31.05 3.15L32.93 3.15C33.18 3.15 33.38 2.95 33.38 2.70C33.38 2.44 33.18 2.23 32.93 2.23ZM26.39 1.29L26.39 1.29L32.93 1.29C33.18 1.29 33.38 1.08 33.38 0.83C33.38 0.56 33.18 0.36 32.93 0.36L26.39 0.36C26.12 0.36 25.91 0.56 25.91 0.83C25.91 1.08 26.12 1.29 26.39 1.29ZM26.39 3.15L26.39 3.15L28.24 3.15L28.24 10.16C28.24 10.43 28.46 10.64 28.71 10.64C28.98 10.64 29.19 10.43 29.19 10.16L29.19 2.70C29.19 2.44 28.98 2.23 28.71 2.23L26.39 2.23C26.12 2.23 25.91 2.44 25.91 2.70C25.91 2.95 26.12 3.15 26.39 3.15Z"></path></g><defs data-v-fde0c5aa=""><!----></defs><g data-v-fde0c5aa="" id="90473a55-c67e-4c5d-bd6c-4f925b9168b5" stroke="none" fill="#FFFFFF" transform="matrix(1.426725204113021,0,0,1.426725204113021,37.8713265288308,114.33115556580302)"><path d="M40.063 1.516H9.938c-4.665 0-8.446 3.777-8.446 8.438v30.093c0 4.661 3.781 8.438 8.446 8.438h30.124c4.664 0 8.445-3.777 8.445-8.438V9.953c.001-4.66-3.78-8.437-8.444-8.437zM11.18 8.496a3.876 3.876 0 1 1 0 7.749 3.876 3.876 0 1 1 0-7.749zm.595 32.695a3.877 3.877 0 0 1-3.879-3.875 3.878 3.878 0 0 1 7.756 0 3.876 3.876 0 0 1-3.877 3.875zM25 28.874a3.876 3.876 0 0 1 0-7.749A3.876 3.876 0 0 1 28.878 25 3.876 3.876 0 0 1 25 28.874zM37.631 8.496a3.876 3.876 0 1 1 0 7.749 3.876 3.876 0 0 1-3.879-3.874 3.876 3.876 0 0 1 3.879-3.875zm.596 32.695a3.877 3.877 0 0 1-3.879-3.875 3.877 3.877 0 0 1 3.879-3.875 3.877 3.877 0 0 1 3.877 3.875 3.877 3.877 0 0 1-3.877 3.875z"></path></g><!----></svg>