<?xml version="1.0" encoding="utf-8"?>
<!-- Generator: Adobe Illustrator 27.5.0, SVG Export Plug-In . SVG Version: 6.00 Build 0)  -->
<svg version="1.1" xmlns="http://www.w3.org/2000/svg" xmlns:xlink="http://www.w3.org/1999/xlink" x="0px" y="0px"
	 viewBox="0 0 750 500" style="enable-background:new 0 0 750 500;" xml:space="preserve">
<g id="BACKGROUND">
</g>
<g id="OBJECTS">
	<g>
		<path style="opacity:0.27;fill:#7229B5;" d="M152.793,446.436c3.062,2.283,8.432,3.921,13.726,5.48h440.842
			c0.672-0.411,1.326-0.854,1.94-1.365c3.865-3.214,5.903-8.075,7.635-12.794c8.362-22.78,12.897-47.339,9.968-71.428
			c-2.929-24.089-13.817-47.677-32.395-63.288c-9.478-7.964-20.72-13.742-29.609-22.358c-27.298-26.458-27.682-74.431-59.01-95.966
			c-14.434-9.922-32.919-12.043-50.396-10.889c-16.327,1.078-32.719,4.854-46.848,13.105c-14.755,8.617-26.327,21.62-38.589,33.52
			c-24.578,23.855-54.429,44.578-88.449,48.545c-21.64,2.523-43.541-1.897-65.287-0.569c-23.736,1.45-46.999,9.926-66.104,24.086
			c-12.234,9.067-22.993,20.774-28.305,35.046c-7.859,21.116-2.898,44.803,4.695,66.016
			C131.846,408.212,140.036,436.925,152.793,446.436z"/>
		<path style="opacity:0.27;fill:#7229B5;" d="M596.479,386.305c-11.59,21.743-23.266,43.441-34.865,65.178
			c-1.561,2.926-3.225,5.968-5.969,7.832c-3.543,2.406-8.143,2.372-12.423,2.25c-23.193-0.66-46.331-1.082-69.521-1.293
			c-53.399-0.487-106.799-0.974-160.198-1.461c-23.96-0.218-47.919-0.437-71.879-0.655c-15.673-0.143-31.263,0.457-46.902,0.502
			c-7.952,0.023-16.393-1.498-22.273-6.852c-4.89-4.453-7.34-10.922-9.466-17.185c-11.444-33.717-18.334-68.974-20.456-104.516
			c-1.82-30.487,4.964-61.281,29.38-81.796c9.098-7.645,19.89-13.192,28.423-21.463c26.205-25.399,26.573-71.45,56.647-92.123
			c13.856-9.525,31.6-11.561,48.378-10.453c15.673,1.035,31.409,4.66,44.972,12.581c14.165,8.271,25.273,20.754,37.043,32.178
			c23.594,22.899,52.249,42.792,84.907,46.601c20.773,2.422,41.797-1.822,62.672-0.546c22.785,1.392,45.117,9.529,63.456,23.121
			c11.745,8.704,22.072,19.942,27.172,33.642c11.141,29.934-1.004,61.34-15.062,87.997
			C605.859,368.673,601.176,377.493,596.479,386.305z"/>
	</g>
	<g>
		<g>
			<g>
				<g>
					<path style="fill:#7229B5;" d="M509.812,393.314c0,0,17.48,9.857,17.19,3.435c-0.26-5.752-13.847-3.955-16.677-3.518
						C509.995,393.282,509.812,393.314,509.812,393.314z"/>
				</g>
				<g>
					<path style="fill:#7229B5;" d="M509.987,393.102c0,0,9.857-17.48,3.435-17.19C507,376.203,509.987,393.102,509.987,393.102z"/>
				</g>
				<g>
					<path style="fill:#7229B5;" d="M498.893,400.995c0,0,17.48,9.857,17.19,3.435C515.793,398.009,498.893,400.995,498.893,400.995
						z"/>
				</g>
				<g>
					<path style="fill:#7229B5;" d="M498.839,401.024c0,0,9.857-17.48,3.435-17.19C495.853,384.124,498.839,401.024,498.839,401.024
						z"/>
				</g>
				<g>
					<path style="fill:#7229B5;" d="M490.145,408.663c0,0,15.335,8.647,15.081,3.014
						C504.971,406.043,490.145,408.663,490.145,408.663z"/>
				</g>
				<g>
					<path style="fill:#7229B5;" d="M490.203,408.805c0,0,8.647-15.335,3.014-15.081
						C487.583,393.978,490.203,408.805,490.203,408.805z"/>
				</g>
				<g>
					<path style="fill:#7229B5;" d="M482.409,417.017c0,0,15.294,6.186,14.378,0.982
						C495.871,412.793,482.409,417.017,482.409,417.017z"/>
				</g>
				<g>
					<path style="fill:#7229B5;" d="M482.649,417.235c0,0,6.186-15.294,0.982-14.378
						C478.426,403.772,482.649,417.235,482.649,417.235z"/>
				</g>
				<g>
					<g>
						<path style="fill:#7229B5;" d="M475.763,426.077c0,0,16.374,2.022,14.143-2.769
							C487.675,418.517,475.763,426.077,475.763,426.077z"/>
					</g>
					<g>
						<path style="fill:#7229B5;" d="M475.97,426.059c0,0,2.022-16.374-2.769-14.143C468.41,414.147,475.97,426.059,475.97,426.059z
							"/>
					</g>
				</g>
				<g>
					<g>
						<path style="fill:#7229B5;" d="M470.547,434.848c0,0,14.196,1.753,12.262-2.401
							C480.875,428.293,470.547,434.848,470.547,434.848z"/>
					</g>
					<g>
						<path style="fill:#7229B5;" d="M470.905,434.925c0,0,1.753-14.196-2.401-12.262
							C464.35,424.597,470.905,434.925,470.905,434.925z"/>
					</g>
				</g>
				<g>
					<g>
						<path style="fill:#7229B5;" d="M467.063,441.901c0,0,12.124,1.497,10.473-2.05
							C475.884,436.303,467.063,441.901,467.063,441.901z"/>
					</g>
					<g>
						<path style="fill:#7229B5;" d="M467.434,442.02c0,0,1.497-12.124-2.05-10.473C461.836,433.199,467.434,442.02,467.434,442.02z
							"/>
					</g>
				</g>
			</g>
		</g>
		<path style="fill:#7229B5;" d="M509.035,393.844c0,0,19.228-7.864,17.201-11.431C524.208,378.846,509.035,393.844,509.035,393.844
			z"/>
		<path style="fill:none;stroke:#7229B5;stroke-miterlimit:10;" d="M512.841,391.409c0,0-42.306,22.038-51.114,69.477"/>
	</g>
	<g>
		<g>
			<g>
				<g>
					<path style="fill:#7229B5;" d="M204.067,342.727c0,0-34.69,0.37-28.901-9.116c5.185-8.497,24.27,5.543,28.193,8.563
						C203.816,342.525,204.067,342.727,204.067,342.727z"/>
				</g>
				<g>
					<path style="fill:#7229B5;" d="M203.979,342.261c0,0-0.37-34.69,9.116-28.901C222.58,319.149,203.979,342.261,203.979,342.261z
						"/>
				</g>
				<g>
					<path style="fill:#7229B5;" d="M214.209,363.459c0,0-34.69,0.369-28.901-9.116
						C191.096,344.857,214.209,363.459,214.209,363.459z"/>
				</g>
				<g>
					<path style="fill:#7229B5;" d="M214.266,363.547c0,0-0.37-34.69,9.116-28.901C232.868,340.434,214.266,363.547,214.266,363.547
						z"/>
				</g>
				<g>
					<path style="fill:#7229B5;" d="M221.073,382.361c0,0-30.434,0.324-25.355-7.998
						C200.796,366.041,221.073,382.361,221.073,382.361z"/>
				</g>
				<g>
					<path style="fill:#7229B5;" d="M220.866,382.528c0,0-0.324-30.434,7.998-25.355
						C237.186,362.251,220.866,382.528,220.866,382.528z"/>
				</g>
				<g>
					<path style="fill:#7229B5;" d="M225.832,401.46c0,0-28.322-3.37-22.598-10.491C208.957,383.848,225.832,401.46,225.832,401.46z
						"/>
				</g>
				<g>
					<path style="fill:#7229B5;" d="M225.287,401.591c0,0,3.37-28.322,10.491-22.598
						C242.899,384.716,225.287,401.591,225.287,401.591z"/>
				</g>
			</g>
		</g>
		<path style="fill:#7229B5;" d="M204.801,344.177c0,0-22.576-27.931-16.533-31.645
			C194.311,308.817,204.801,344.177,204.801,344.177z"/>
		<path style="fill:none;stroke:#7229B5;stroke-linecap:round;stroke-linejoin:round;stroke-miterlimit:10;" d="M201.065,337.318
			c0,0,27.972,41.979,27.637,98.163"/>
	</g>
	<g>
		<g>
			<g>
				<g>
					<path style="fill:#7229B5;" d="M496.301,236.19c0,0,20.135,28.251,24.391,17.986c3.812-9.195-18.776-16.348-23.526-17.74
						C496.612,236.274,496.301,236.19,496.301,236.19z"/>
				</g>
				<g>
					<path style="fill:#7229B5;" d="M496.73,235.987c0,0,28.251-20.135,17.986-24.391C504.45,207.341,496.73,235.987,496.73,235.987
						z"/>
				</g>
				<g>
					<path style="fill:#7229B5;" d="M473.574,240.206c0,0,20.135,28.251,24.391,17.986
						C502.221,247.927,473.574,240.206,473.574,240.206z"/>
				</g>
				<g>
					<path style="fill:#7229B5;" d="M473.469,240.212c0,0,28.251-20.135,17.986-24.391
						C481.19,211.566,473.469,240.212,473.469,240.212z"/>
				</g>
				<g>
					<path style="fill:#7229B5;" d="M454.256,245.793c0,0,17.665,24.785,21.398,15.779
						C479.388,252.566,454.256,245.793,454.256,245.793z"/>
				</g>
				<g>
					<path style="fill:#7229B5;" d="M454.243,246.059c0,0,24.785-17.664,15.779-21.398
						C461.015,220.927,454.243,246.059,454.243,246.059z"/>
				</g>
				<g>
					<path style="fill:#7229B5;" d="M436.018,253.197c0,0,19.405,20.902,21.789,12.082
						C460.19,256.46,436.018,253.197,436.018,253.197z"/>
				</g>
				<g>
					<path style="fill:#7229B5;" d="M436.233,253.715c0,0,20.902-19.405,12.082-21.789
						C439.496,229.543,436.233,253.715,436.233,253.715z"/>
				</g>
				<g>
					<g>
						<path style="fill:#7229B5;" d="M418.968,262.507c0,0,24.15,15.174,24.172,6.039
							C443.162,259.409,418.968,262.507,418.968,262.507z"/>
					</g>
					<g>
						<path style="fill:#7229B5;" d="M419.305,262.631c0,0,15.175-24.15,6.039-24.172
							C416.208,238.437,419.305,262.631,419.305,262.631z"/>
					</g>
				</g>
				<g>
					<g>
						<path style="fill:#7229B5;" d="M404.37,272.412c0,0,20.938,13.156,20.957,5.235
							C425.346,269.726,404.37,272.412,404.37,272.412z"/>
					</g>
					<g>
						<path style="fill:#7229B5;" d="M404.874,272.795c0,0,13.156-20.938,5.235-20.957
							C402.188,251.819,404.874,272.795,404.874,272.795z"/>
					</g>
				</g>
				<g>
					<g>
						<path style="fill:#7229B5;" d="M393.743,280.898c0,0,17.882,11.236,17.898,4.471
							C411.658,278.604,393.743,280.898,393.743,280.898z"/>
					</g>
					<g>
						<path style="fill:#7229B5;" d="M394.237,281.356c0,0,11.236-17.882,4.471-17.898
							C391.943,263.441,394.237,281.356,394.237,281.356z"/>
					</g>
				</g>
			</g>
		</g>
		<path style="fill:#7229B5;" d="M494.697,236.451c0,0,35.869,1.792,35.311-5.28C529.451,224.1,494.697,236.451,494.697,236.451z"/>
		<path style="fill:none;stroke:#7229B5;stroke-miterlimit:10;" d="M502.441,235.43c0,0-82.394,3.471-130.977,71.276"/>
	</g>
	<g>
		<g>
			<g>
				<path style="fill:#7229B5;" d="M316.324,316.203c1.252-0.544-9.122-31.023-9.796-32.635
					c-10.063-24.078-25.079-43.678-43.262-56.367c-33.59-23.44-72.827-21.051-110.512-12.038c4.673,0.112,8.902,3.053,12.724,6.369
					c25.005,21.697,38.27,61.281,64.048,81.428C254.521,322.496,287.175,328.759,316.324,316.203z"/>
			</g>
		</g>
		<g>
			<path style="fill:none;stroke:#FFFFFF;stroke-linecap:round;stroke-linejoin:round;stroke-miterlimit:10;" d="M301.393,309.599
				c0,0-46.315-79.727-129.431-90.675"/>
			<polyline style="fill:none;stroke:#FFFFFF;stroke-linecap:round;stroke-linejoin:round;stroke-miterlimit:10;" points="
				226.16,216.566 234.592,241.815 192.783,243.597 			"/>
			<polyline style="fill:none;stroke:#FFFFFF;stroke-linecap:round;stroke-linejoin:round;stroke-miterlimit:10;" points="
				258.163,237.561 266.386,266.742 231.229,268.581 			"/>
			<polyline style="fill:none;stroke:#FFFFFF;stroke-linecap:round;stroke-linejoin:round;stroke-miterlimit:10;" points="
				286.65,264.414 291.158,294.52 255.556,291.263 			"/>
		</g>
	</g>
	<g>
		<g>
			<g>
				<g>
					<g>
						<polygon style="fill:#FAAD3B;stroke:#6A26A8;stroke-miterlimit:10;" points="326.804,308.56 321.073,323.109 283.244,419.204 
							279.313,404.962 275.121,361.095 291.29,313.299 						"/>
						<g style="opacity:0.75;">
							<polygon style="fill:#F5E073;" points="321.073,323.109 283.244,419.204 279.313,404.962 317.08,322.264 							"/>
						</g>
					</g>
					<g>
						<polygon style="fill:#FAAD3B;stroke:#6A26A8;stroke-miterlimit:10;" points="455.989,378.143 450.992,403.284 
							447.833,419.204 410.004,323.109 404.261,308.56 439.775,313.299 						"/>
						<g style="opacity:0.75;">
							<polygon style="fill:#F5E073;" points="450.992,403.284 447.833,419.204 410.004,323.109 413.997,322.264 							"/>
						</g>
					</g>
					<g>
						<g>
							<g>
								<path style="fill:#F5E073;" d="M323.31,378.635c-0.131,0-0.257-0.052-0.351-0.144c-0.096-0.094-0.149-0.223-0.149-0.356
									c0-0.805-0.02-1.617-0.05-2.422l-0.028-1.194l-0.029-0.704c-0.018-0.421-0.035-0.837-0.061-1.247
									c-0.051-0.938-0.101-1.869-0.141-2.801c-0.119-1.663-0.248-3.33-0.398-4.977l-0.022-0.254
									c-0.017-0.181-0.033-0.359-0.04-0.543l-0.031-1.103l-0.025-0.588c-0.018-0.431-0.036-0.855-0.064-1.286l-0.15-2.795
									c-0.109-1.669-0.239-3.325-0.389-4.981l-0.12-1.433l-0.169-1.607c-0.054-0.542-0.102-1.027-0.159-1.495l-0.074-0.674
									c-0.063-0.576-0.124-1.145-0.196-1.714l-0.078-0.577l-0.182-1.485c-0.06-0.484-0.119-0.961-0.188-1.427l-0.039-0.273
									c-0.057-0.398-0.113-0.791-0.163-1.177l-0.278-1.888c-0.043-0.301-0.086-0.603-0.138-0.899
									c-0.071-0.478-0.141-0.923-0.22-1.368c-0.211-1.358-0.431-2.676-0.65-3.964c-0.06-0.368-0.119-0.713-0.188-1.068
									c-0.138-0.81-0.286-1.596-0.432-2.368l-0.108-0.576c-0.109-0.565-0.219-1.114-0.329-1.663
									c-0.234-1.207-0.467-2.354-0.693-3.444c-13.188-1.266-27.798-7.941-27.946-8.01c-0.247-0.114-0.358-0.405-0.249-0.654
									l18.03-41.18c4.076-6.5,20.171-11.508,32.961-14.576c6.421-1.529,11.55-2.462,12.662-2.658
									c0.063-0.029,0.132-0.046,0.201-0.046c0.015,0,13.219,1.202,13.219,1.202s13.58-1.202,13.594-1.202
									c0.076,0,0.15,0.017,0.219,0.05c2.606,0.445,39.157,6.946,45.565,17.165l18.064,41.245c0.109,0.249-0.001,0.54-0.249,0.654
									c-0.152,0.07-15.257,6.967-28.605,8.076c-5.703,21.906-5.368,52.307-5.364,52.612c0.004,0.276-0.217,0.503-0.492,0.507
									l-12.559,0.191l-18.93,0.3l-22.061,0.34l-2.612,0.03C352.426,378.185,323.313,378.635,323.31,378.635z"/>
								<path style="fill:#6A26A8;" d="M379.45,257.515v0.02c0.13,0.02,38.92,6.69,45.36,16.96l18.03,41.18
									c0,0-15.29,7.04-28.79,8.06c-5.88,22.25-5.47,53.09-5.47,53.09l-12.56,0.19l-18.93,0.3l-22.06,0.34l-2.61,0.03l-11.52,0.18
									l-17.59,0.27c0-0.81-0.02-1.63-0.05-2.44c-0.01-0.43-0.02-0.86-0.03-1.27c-0.03-0.64-0.05-1.27-0.09-1.89
									c-0.05-0.93-0.1-1.86-0.14-2.79c-0.12-1.68-0.25-3.35-0.4-5c-0.02-0.26-0.05-0.51-0.06-0.77c-0.01-0.37-0.02-0.75-0.03-1.1
									c-0.03-0.64-0.05-1.26-0.09-1.89c-0.05-0.93-0.1-1.86-0.15-2.79c-0.11-1.68-0.24-3.34-0.39-5
									c-0.04-0.48-0.08-0.95-0.12-1.43c-0.06-0.54-0.11-1.08-0.17-1.62c-0.05-0.5-0.1-1.01-0.16-1.5
									c-0.09-0.81-0.17-1.6-0.27-2.39c-0.03-0.2-0.05-0.39-0.08-0.59c-0.06-0.5-0.12-0.98-0.18-1.47
									c-0.06-0.49-0.12-0.97-0.19-1.44c-0.07-0.49-0.14-0.97-0.2-1.44c-0.07-0.47-0.14-0.95-0.21-1.42
									c-0.07-0.46-0.13-0.93-0.21-1.39c-0.07-0.47-0.14-0.92-0.22-1.37c-0.21-1.35-0.43-2.67-0.65-3.96
									c-0.06-0.37-0.12-0.72-0.19-1.08c-0.17-1-0.36-1.98-0.54-2.94c-0.11-0.57-0.22-1.12-0.33-1.67
									c-0.26-1.34-0.52-2.61-0.77-3.81c-13.35-1.18-28.15-8-28.15-8l18.03-41.18c4.02-6.4,20.66-11.42,32.62-14.29
									c7.18-1.71,12.68-2.66,12.73-2.67l0.01-0.02l0.3,0.03l12.88,1.17L379.45,257.515 M352.63,256.515
									c-0.124,0-0.246,0.023-0.358,0.067c-1.305,0.233-6.365,1.163-12.613,2.651c-12.883,3.091-29.106,8.156-33.235,14.731
									c-0.026,0.042-0.049,0.086-0.069,0.131l-18.03,41.18c-0.219,0.499,0.003,1.081,0.497,1.309
									c0.599,0.276,14.581,6.664,27.739,8.017c0.202,0.98,0.41,2.005,0.618,3.075c0.114,0.571,0.222,1.11,0.33,1.669l0.113,0.598
									c0.144,0.761,0.29,1.534,0.423,2.32c0.072,0.373,0.13,0.713,0.189,1.073c0.221,1.293,0.44,2.608,0.649,3.954
									c0.082,0.462,0.15,0.903,0.219,1.364c0.054,0.314,0.096,0.609,0.139,0.902l0.072,0.491l0.105,0.71l0.105,0.707
									c0.049,0.383,0.108,0.794,0.167,1.213l0.032,0.221c0.07,0.468,0.128,0.939,0.187,1.42l0.06,0.488l0.12,0.979
									c0.018,0.122,0.03,0.213,0.041,0.304c0.013,0.104,0.027,0.208,0.043,0.315c0.068,0.538,0.129,1.098,0.19,1.666l0.075,0.686
									c0.056,0.456,0.102,0.918,0.147,1.374l0.011,0.115c0.031,0.278,0.058,0.545,0.085,0.813
									c0.028,0.273,0.056,0.546,0.086,0.818l0.06,0.717l0.058,0.686c0.151,1.669,0.281,3.343,0.389,4.982l0.149,2.778
									c0.027,0.432,0.045,0.849,0.063,1.271l0.027,0.612l0.022,0.801l0.008,0.279c0.008,0.2,0.024,0.384,0.041,0.57l0.022,0.25
									c0.135,1.487,0.265,3.116,0.4,4.994c0.039,0.905,0.089,1.839,0.139,2.773c0.027,0.426,0.045,0.846,0.063,1.27l0.027,0.613
									l0.029,1.247c0.034,0.91,0.05,1.696,0.05,2.417c0,0.268,0.107,0.524,0.298,0.712c0.187,0.184,0.439,0.288,0.702,0.288
									c0.005,0,0.01,0,0.015,0l17.59-0.27l11.52-0.18l2.606-0.03l22.064-0.34l18.93-0.3l12.559-0.19
									c0.552-0.008,0.992-0.462,0.985-1.013c-0.004-0.304-0.333-30.33,5.259-52.139c13.332-1.201,27.799-7.804,28.419-8.09
									c0.495-0.228,0.716-0.81,0.498-1.31l-18.03-41.18c-0.02-0.045-0.043-0.089-0.069-0.13
									c-6.507-10.376-42.978-16.889-45.875-17.387c-0.108-0.04-0.223-0.062-0.339-0.062c-0.027,0-0.054,0.001-0.081,0.004
									l-13.551,1.192l-12.791-1.162l-0.291-0.029C352.696,256.517,352.663,256.515,352.63,256.515L352.63,256.515z"/>
							</g>
						</g>
					</g>
					<path style="fill:#E3C940;" d="M377.09,377.315l-22.06,0.34l-2.61,0.03l-29.11,0.45c0-0.81-0.02-1.63-0.05-2.44
						c-0.01-0.43-0.02-0.86-0.03-1.27c-0.03-0.64-0.05-1.27-0.09-1.89c-0.05-0.93-0.1-1.86-0.14-2.79c-0.12-1.68-0.25-3.35-0.4-5
						c-0.02-0.26-0.05-0.51-0.06-0.77c-0.01-0.37-0.02-0.75-0.03-1.1c-0.03-0.64-0.05-1.26-0.09-1.89c-0.05-0.93-0.1-1.86-0.15-2.79
						c-0.11-1.68-0.24-3.34-0.39-5c-0.04-0.48-0.08-0.95-0.12-1.43c-0.06-0.54-0.11-1.08-0.17-1.62c-0.05-0.5-0.1-1.01-0.16-1.5
						c-0.09-0.81-0.17-1.6-0.27-2.39c-0.03-0.2-0.05-0.39-0.08-0.59c-0.06-0.5-0.12-0.98-0.18-1.47c-0.06-0.49-0.12-0.97-0.19-1.44
						c-0.07-0.49-0.14-0.97-0.2-1.44c-0.07-0.47-0.14-0.95-0.21-1.42c-0.07-0.46-0.13-0.93-0.21-1.39
						c-0.07-0.47-0.14-0.92-0.22-1.37c-0.21-1.35-0.43-2.67-0.65-3.96c-0.06-0.37-0.12-0.72-0.19-1.08c-0.17-1-0.36-1.98-0.54-2.94
						c-0.11-0.57-0.22-1.12-0.33-1.67c-0.26-1.34-0.52-2.61-0.77-3.81C317.39,323.675,345.67,360.065,377.09,377.315z"/>
				</g>
				<g>
					<g>
						<g>
							<path style="fill:#FAAD3B;" d="M379.45,229.925v30.28c0,0-3.17,2.38-10.34,2.81c-0.7,0.04-1.45,0.06-2.23,0.06
								c-4.98,0-8.66-0.79-11.02-1.54c-2.15-0.68-3.23-1.33-3.23-1.33v-27.06L379.45,229.925z"/>
							<g style="opacity:0.75;">
								<path style="fill:#F5E073;" d="M369.11,263.015c-0.7,0.04-1.45,0.06-2.23,0.06c-4.98,0-8.66-0.79-11.02-1.54
									c-2.15-0.68-3.23-1.33-3.23-1.33v-24.89l10.76,5.17C363.39,240.485,360.98,255.195,369.11,263.015z"/>
							</g>
							<polyline style="fill:none;stroke:#6A26A8;stroke-linecap:round;stroke-linejoin:round;stroke-miterlimit:10;" points="
								352.628,260.209 352.628,233.141 379.45,229.921 379.45,260.209 							"/>
						</g>
						<g>
							<g>
								<g>
									<path style="fill:#FAAD3B;stroke:#6A26A8;stroke-miterlimit:10;" d="M333.725,200.971c0.339,4.715-1.556,8.693-4.233,8.885
										c-2.676,0.192-5.12-3.474-5.459-8.189c-0.339-4.715,1.556-8.693,4.232-8.886
										C330.942,192.589,333.386,196.255,333.725,200.971z"/>
									<g>
										<g style="opacity:0.75;">
											<path style="fill:#F5E073;" d="M325.844,199.481c0.724-0.704,1.813-0.723,2.659-0.212
												c0.973,0.588,1.358,1.747,1.665,2.775c0.215,0.719-0.907,1.026-1.121,0.309c-0.185-0.619-0.368-1.314-0.815-1.806
												c-0.385-0.423-1.1-0.697-1.566-0.244C326.129,200.826,325.306,200.004,325.844,199.481L325.844,199.481z"/>
										</g>
									</g>
								</g>
								<g>
									<path style="fill:#FAAD3B;stroke:#6A26A8;stroke-miterlimit:10;" d="M397.701,200.971
										c-0.339,4.715,1.556,8.693,4.232,8.885c2.676,0.192,5.12-3.474,5.459-8.189c0.339-4.715-1.556-8.693-4.232-8.886
										C400.484,192.589,398.04,196.255,397.701,200.971z"/>
									<g>
										<g style="opacity:0.75;">
											<path style="fill:#F5E073;" d="M405.582,199.481c-0.724-0.704-1.813-0.723-2.66-0.212
												c-0.973,0.588-1.358,1.747-1.665,2.775c-0.215,0.719,0.907,1.026,1.122,0.309c0.185-0.619,0.368-1.314,0.815-1.806
												c0.385-0.423,1.1-0.697,1.566-0.244C405.297,200.826,406.12,200.004,405.582,199.481L405.582,199.481z"/>
										</g>
									</g>
								</g>
								<g>
									<g>
										<g>
											<path style="fill:#FAAD3B;" d="M366.836,243.161c-2.887,0-5.749-0.371-8.504-1.103c-2.068-0.54-4.06-1.268-5.918-2.163
												c-0.684-0.325-1.29-0.638-1.85-0.955c-0.922-0.512-1.881-1.116-2.929-1.845c-8.338-5.838-14.183-15.504-16.903-27.954
												c-1.174-5.519-1.74-11.571-1.682-17.991c-0.042-1.546-0.028-3.072,0.041-4.519l0.006-0.138l0.02-0.035
												c0.846-15.306,8.03-28.721,19.232-35.905c0.76-0.493,1.536-0.951,2.306-1.36c4.398-2.423,9.138-3.719,14.082-3.849
												c0.312-0.009,0.625-0.014,0.938-0.014c6.176,0,12.307,1.887,17.729,5.456c10.007,6.571,17.147,18.54,19.102,32.016
												l0.052,0.5c0.263,1.85,0.423,3.763,0.473,5.669c0.021,1.34,0.021,2.656,0,3.941l-0.059,1.858
												c-0.157,4.354-0.594,8.552-1.298,12.482c-2.714,14.863-9.554,26.142-19.262,31.765c-0.729,0.469-1.571,0.922-2.553,1.372
												l-0.303-0.412l0.209,0.454l-0.119,0.053c-3.637,1.631-7.593,2.527-11.749,2.659
												C367.542,243.156,367.188,243.161,366.836,243.161z"/>
											<path style="fill:#6A26A8;" d="M365.674,145.831c6.29,0,12.241,1.941,17.456,5.374c9.73,6.39,16.89,17.94,18.88,31.67
												l0.05,0.48c0.26,1.83,0.42,3.72,0.47,5.63c0.02,1.33,0.02,2.64,0,3.92c-0.02,0.62-0.04,1.24-0.06,1.85
												c-0.16,4.43-0.6,8.56-1.29,12.41c-2.8,15.34-9.73,26.04-19.02,31.42c-0.81,0.52-1.66,0.96-2.51,1.35
												c-0.07,0.03-0.13,0.06-0.2,0.09c-3.59,1.61-7.48,2.49-11.57,2.62c-0.348,0.011-0.696,0.016-1.044,0.016
												c-2.845,0-5.658-0.365-8.376-1.086c-1.99-0.52-3.94-1.22-5.83-2.13c-0.61-0.29-1.22-0.6-1.82-0.94
												c-0.99-0.55-1.94-1.16-2.89-1.82c-7.74-5.42-13.85-14.61-16.7-27.65c-1.13-5.31-1.73-11.27-1.67-17.88
												c-0.04-1.51-0.03-3.02,0.04-4.5c0-0.02,0-0.02,0.02-0.05c0.82-15.44,8.25-28.73,19.01-35.63
												c0.74-0.48,1.5-0.93,2.27-1.34c4.23-2.33,8.9-3.66,13.86-3.79C365.058,145.836,365.367,145.831,365.674,145.831
												 M365.675,144.831h-0.001c-0.317,0-0.635,0.005-0.954,0.014c-5.02,0.132-9.837,1.448-14.312,3.914
												c-0.769,0.409-1.558,0.875-2.332,1.377c-11.326,7.263-18.593,20.812-19.456,36.265c-0.018,0.075-0.03,0.159-0.03,0.254
												c-0.068,1.408-0.082,2.947-0.04,4.526c-0.059,6.422,0.51,12.511,1.691,18.062c2.749,12.579,8.664,22.35,17.105,28.261
												c1.067,0.742,2.04,1.354,2.978,1.875c0.565,0.32,1.181,0.638,1.876,0.969c1.882,0.906,3.904,1.645,6.007,2.194
												c2.794,0.742,5.699,1.119,8.629,1.119c0.358,0,0.716-0.006,1.075-0.017c4.222-0.134,8.242-1.045,11.948-2.707l0.11-0.049
												l0.075-0.034c1.027-0.471,1.888-0.934,2.657-1.428c9.798-5.673,16.724-17.075,19.464-32.082
												c0.708-3.953,1.147-8.175,1.306-12.553l0.06-1.854c0.021-1.302,0.021-2.632,0-3.967c-0.051-1.938-0.212-3.871-0.48-5.756
												l-0.046-0.443c-1.978-13.655-9.201-25.753-19.326-32.402C378.174,146.746,371.948,144.831,365.675,144.831
												L365.675,144.831z"/>
										</g>
										<path style="fill:none;stroke:#6A26A8;stroke-linecap:round;stroke-linejoin:round;stroke-miterlimit:10;" d="
											M364.825,196.818c0,0,2.467,8.421,0.427,13.197c-0.392,0.919,0.175,1.938,1.169,2.035
											c1.538,0.151,3.774-0.076,6.182-1.796"/>
										<path style="fill:none;stroke:#6A26A8;stroke-linecap:round;stroke-linejoin:round;stroke-miterlimit:10;" d="
											M364.332,219.792c0,0,7.588,3.288,13.781-3.226"/>
										<path style="fill:none;stroke:#6A26A8;stroke-linecap:round;stroke-linejoin:round;stroke-miterlimit:10;" d="
											M376.774,185.54c0,0,6.598-1.931,9.777,0.934"/>
										<path style="fill:none;stroke:#6A26A8;stroke-linecap:round;stroke-linejoin:round;stroke-miterlimit:10;" d="
											M347.64,185.54c0,0,6.598-1.931,9.777,0.934"/>
										<g style="opacity:0.75;">
											<path style="fill:#F5E073;" d="M367.88,242.645c-3.2,0.1-6.37-0.26-9.42-1.07c-1.99-0.52-3.94-1.22-5.83-2.13
												c-0.61-0.29-1.22-0.6-1.82-0.94c-0.99-0.55-1.94-1.16-2.89-1.82c-7.74-5.42-13.85-14.61-16.7-27.65
												c-1.13-5.31-1.73-11.27-1.67-17.88c-0.04-1.51-0.03-3.02,0.04-4.5c0-0.02,0-0.02,0.02-0.05
												c0.82-15.44,8.25-28.73,19.01-35.63l2.7,11.22c0,0-13.26,51.92,1.31,72.35C356.03,239.315,360.94,242.365,367.88,242.645
												z"/>
										</g>
									</g>
									<g>
										<g style="opacity:0.49;">
											<path style="fill:#E8A137;" d="M391.413,209.668c-0.813,3.437-4.258,5.564-7.695,4.751
												c-3.437-0.813-5.564-4.258-4.751-7.695c0.813-3.437,4.258-5.564,7.695-4.751
												C390.1,202.786,392.227,206.231,391.413,209.668z"/>
											<path style="fill:#E8A137;" d="M353.062,210.671c-0.813,3.437-4.258,5.564-7.695,4.751
												c-3.437-0.813-5.564-4.258-4.751-7.695c0.813-3.437,4.258-5.564,7.696-4.751
												C351.749,203.789,353.875,207.234,353.062,210.671z"/>
										</g>
										<g>
											<g>
												<g>
													<g>
														<path style="fill:#7229B5;" d="M382.519,194.07c-0.001,2.527-1.377,4.663-3.074,4.773
															c-1.697,0.11-3.072-1.848-3.071-4.376c0.001-2.526,1.376-4.664,3.075-4.775
															C381.145,189.583,382.52,191.543,382.519,194.07z"/>
														<path style="fill:#7229B5;" d="M356.705,193.908c0.135,2.524-1.124,4.731-2.813,4.932
															c-1.688,0.201-3.168-1.681-3.302-4.205c-0.135-2.522,1.124-4.731,2.814-4.933
															C355.092,189.502,356.57,191.385,356.705,193.908z"/>
													</g>
												</g>
											</g>
										</g>
									</g>
								</g>
							</g>
						</g>
					</g>
				</g>
			</g>
		</g>
		<g>
			<path style="fill:#7229B5;" d="M346.839,255.842c-0.039,0-0.078-0.005-0.118-0.014c-0.453-0.11-11.196-2.835-19.047-15.923
				c-9.663-16.107-10.501-39.989-2.489-70.982c0.565-2.187,1.183-4.349,1.836-6.428c0.126-0.516,0.271-1.06,0.433-1.602
				c1.83-6.139,4.289-11.464,7.309-15.83c3.087-4.773,6.615-8.162,10.48-10.061c5.086-3.076,11.094-4.647,17.82-4.647
				c2.967,0,6.126,0.307,9.395,0.912c-0.006-0.137-0.009-0.274-0.009-0.413c0-7.026,5.716-12.742,12.742-12.742
				c7.026,0,12.742,5.716,12.742,12.742c0,4.454-2.32,8.563-6.097,10.873c16.185,17.738,11.865,50.787,11.819,51.122
				c-0.018,0.14-0.097,0.265-0.213,0.345c-0.084,0.058-0.183,0.087-0.282,0.087c-0.039,0-0.077-0.004-0.116-0.014
				c-0.191-0.045-18.311-4.63-20.775-27.509c-2.259,6.501-11.3,20.058-47.479,26.828c-1.988,20.622-1.412,48.042,12.411,62.41
				c0.154,0.16,0.184,0.402,0.073,0.596C347.182,255.748,347.015,255.842,346.839,255.842z"/>
			<path style="fill:#6A26A8;" d="M385.19,118.613c6.761,0,12.242,5.481,12.242,12.242c0,4.641-2.583,8.678-6.39,10.754
				c16.717,17.648,12.117,51.172,12.117,51.172s-19.801-4.712-20.641-30.637c0,0-0.082,21.124-48.192,30.019
				c-1.979,20.137-1.744,48.361,12.512,63.179c0,0-40.919-9.89-21.171-86.293c0.585-2.265,1.197-4.391,1.829-6.403
				c0.133-0.538,0.276-1.075,0.435-1.609c1.73-5.801,4.101-11.149,7.242-15.687c3.213-4.967,6.689-8.128,10.289-9.898
				c4.833-2.922,10.646-4.596,17.599-4.596c2.999,0,6.211,0.311,9.647,0.968c0.099,0.019,0.194,0.043,0.292,0.063
				c-0.029-0.341-0.052-0.684-0.052-1.032C372.948,124.094,378.429,118.613,385.19,118.613 M385.19,117.613
				c-7.24,0-13.141,5.839-13.241,13.056c-3.086-0.54-6.072-0.813-8.888-0.813c-6.802,0-12.884,1.587-18.079,4.717
				c-3.932,1.944-7.514,5.386-10.649,10.233c-3.033,4.382-5.515,9.755-7.36,15.945c-0.147,0.494-0.291,1.026-0.44,1.625
				c-0.653,2.08-1.27,4.241-1.834,6.423c-8.046,31.128-7.19,55.138,2.545,71.364c7.958,13.265,18.897,16.039,19.359,16.151
				c0.078,0.019,0.157,0.028,0.235,0.028c0.352,0,0.686-0.187,0.867-0.502c0.221-0.385,0.161-0.871-0.147-1.191
				c-13.609-14.145-14.244-41.168-12.309-61.641c19.775-3.744,33.884-9.969,41.941-18.504c2.396-2.539,3.885-4.918,4.81-6.897
				c1.558,10.444,6.399,16.75,10.494,20.33c5.182,4.529,10.22,5.766,10.432,5.817c0.077,0.018,0.154,0.027,0.232,0.027
				c0.2,0,0.397-0.06,0.565-0.175c0.233-0.159,0.387-0.41,0.426-0.689c0.187-1.365,4.33-33.11-11.55-51.087
				c3.626-2.45,5.832-6.549,5.832-10.976C398.432,123.553,392.492,117.613,385.19,117.613L385.19,117.613z"/>
		</g>
	</g>
	<g>
		<path style="fill:#7229B5;" d="M271.508,451.656c-0.276,0-0.5-0.224-0.5-0.5V339.225c0-0.276,0.224-0.5,0.5-0.5h190.219
			c0.276,0,0.5,0.224,0.5,0.5v111.931c0,0.276-0.224,0.5-0.5,0.5H271.508z"/>
		<path style="fill:#6A26A8;" d="M461.727,339.225v111.93H271.508v-111.93H461.727 M461.727,338.225H271.508c-0.552,0-1,0.448-1,1
			v111.93c0,0.552,0.448,1,1,1h190.219c0.552,0,1-0.448,1-1v-111.93C462.727,338.673,462.279,338.225,461.727,338.225
			L461.727,338.225z"/>
	</g>
	<g>
		<g>
			<path style="fill:#EDEDED;" d="M208.86,451.415c-0.244,0-0.452-0.176-0.493-0.415c-1.979-11.516-7.183-41.621-7.483-42.62
				c-0.045-0.151-0.018-0.321,0.076-0.448c0.094-0.127,0.241-0.207,0.399-0.207h42.36c0.149,0,0.29,0.066,0.385,0.182
				c0.095,0.114,0.134,0.266,0.106,0.412l-7.59,39.83c-0.006,0.033-0.016,0.065-0.028,0.096l-0.522,2.764
				c-0.044,0.236-0.251,0.407-0.491,0.407H208.86z"/>
			<path style="fill:#6A26A8;" d="M243.72,408.225l-7.59,39.83h-0.01l-0.54,2.86h-26.72c0,0-7.17-41.71-7.5-42.69H243.72
				 M243.72,407.225h-42.36c-0.322,0-0.624,0.155-0.812,0.417c-0.188,0.262-0.238,0.598-0.136,0.903
				c0.296,1.092,4.626,26.043,7.462,42.54c0.083,0.48,0.499,0.831,0.986,0.831h26.72c0.481,0,0.893-0.342,0.983-0.815l0.515-2.726
				c0.015-0.043,0.026-0.087,0.035-0.133l7.59-39.83c0.056-0.293-0.022-0.595-0.212-0.825
				C244.3,407.358,244.018,407.225,243.72,407.225L243.72,407.225z M243.72,409.225h0.005H243.72L243.72,409.225z"/>
		</g>
		<g>
			<path style="fill:#7229B5;" d="M222.043,427.341c-1.635-3.68-1.212-7.011-0.536-9.213c-4.397,0.197-7.913,4.507-7.913,9.809
				c0,5.428,3.682,9.828,8.225,9.828c0.123,0,0.242-0.016,0.364-0.022C223.046,435.136,223.75,431.181,222.043,427.341z"/>
			<path style="fill:#7229B5;" d="M231.678,427.937c0-5.428-3.682-9.828-8.225-9.828c-0.105,0-0.207,0.014-0.312,0.019
				c-0.676,2.202-1.1,5.533,0.536,9.213c1.707,3.84,1.003,7.795,0.139,10.401C228.189,437.513,231.678,433.217,231.678,427.937z"/>
		</g>
		<g>
			<path style="fill:#EDEDED;" d="M201.36,408.725c-0.185,0-0.355-0.103-0.441-0.266c-0.087-0.163-0.077-0.36,0.027-0.514
				l4.09-6.059l4.7-6.98c0.093-0.138,0.248-0.221,0.414-0.221h25.76c0.176,0,0.339,0.093,0.429,0.243l4.17,6.98l3.64,6.059
				c0.093,0.155,0.095,0.348,0.006,0.504c-0.089,0.157-0.255,0.254-0.435,0.254H201.36z"/>
			<path style="fill:#6A26A8;" d="M235.91,395.185l4.17,6.98l3.64,6.06h-42.36l4.09-6.06l4.7-6.98H235.91 M235.91,394.185h-25.76
				c-0.333,0-0.644,0.165-0.829,0.441l-4.7,6.98l-4.089,6.059c-0.207,0.307-0.228,0.702-0.054,1.029
				c0.174,0.327,0.513,0.531,0.883,0.531h42.36c0.36,0,0.693-0.194,0.87-0.508c0.177-0.314,0.173-0.698-0.013-1.007l-3.64-6.06
				l-4.169-6.978C236.588,394.37,236.262,394.185,235.91,394.185L235.91,394.185z"/>
		</g>
	</g>
	<g>
		
			<ellipse transform="matrix(0.1581 -0.9874 0.9874 0.1581 321.3797 587.548)" style="fill:#FFFFFF;stroke:#6A26A8;stroke-linecap:round;stroke-linejoin:round;stroke-miterlimit:10;" cx="505.235" cy="105.313" rx="42.721" ry="42.721"/>
		<g>
			<g>
				
					<line style="fill:#FFFFFF;stroke:#6A26A8;stroke-linecap:round;stroke-linejoin:round;stroke-miterlimit:10;" x1="505.235" y1="62.592" x2="505.235" y2="70.023"/>
				
					<line style="fill:#FFFFFF;stroke:#6A26A8;stroke-linecap:round;stroke-linejoin:round;stroke-miterlimit:10;" x1="505.235" y1="139.877" x2="505.235" y2="147.309"/>
			</g>
			<g>
				
					<line style="fill:#FFFFFF;stroke:#6A26A8;stroke-linecap:round;stroke-linejoin:round;stroke-miterlimit:10;" x1="462.877" y1="104.95" x2="470.309" y2="104.95"/>
				
					<line style="fill:#FFFFFF;stroke:#6A26A8;stroke-linecap:round;stroke-linejoin:round;stroke-miterlimit:10;" x1="540.162" y1="104.95" x2="547.594" y2="104.95"/>
			</g>
		</g>
		<g>
			<g>
				
					<line style="fill:#FFFFFF;stroke:#6A26A8;stroke-linecap:round;stroke-linejoin:round;stroke-miterlimit:10;" x1="475.283" y1="74.998" x2="480.538" y2="80.253"/>
				
					<line style="fill:#FFFFFF;stroke:#6A26A8;stroke-linecap:round;stroke-linejoin:round;stroke-miterlimit:10;" x1="529.932" y1="129.647" x2="535.187" y2="134.902"/>
			</g>
			<g>
				
					<line style="fill:#FFFFFF;stroke:#6A26A8;stroke-linecap:round;stroke-linejoin:round;stroke-miterlimit:10;" x1="475.283" y1="134.902" x2="480.538" y2="129.647"/>
				
					<line style="fill:#FFFFFF;stroke:#6A26A8;stroke-linecap:round;stroke-linejoin:round;stroke-miterlimit:10;" x1="529.932" y1="80.253" x2="535.187" y2="74.998"/>
			</g>
		</g>
		<path style="fill:#6A26A8;" d="M508.114,104.95c0,1.59-1.289,2.878-2.878,2.878c-1.59,0-2.878-1.289-2.878-2.878
			c0-1.59,1.289-2.879,2.878-2.879C506.825,102.072,508.114,103.36,508.114,104.95z"/>
		<polyline style="fill:none;stroke:#6A26A8;stroke-linecap:round;stroke-linejoin:round;stroke-miterlimit:10;" points="
			505.235,74.998 505.235,104.95 521.951,120.783 		"/>
	</g>
	<path style="opacity:0.27;fill:#7229B5;" d="M236.12,448.055l-0.54,2.86h-26.72c0,0-7.17-41.71-7.5-42.69l4.09-6.06l4.7-6.98
		c0,0-0.16,5.54,0.7,13.04C212.51,422.885,218.04,445.055,236.12,448.055z"/>
	<g>
		<g>
			<path style="fill:none;stroke:#7229B5;stroke-miterlimit:10;" d="M559.533,395.771c0,0,4.242-29.432,17.327-42.338"/>
			<g>
				<path style="fill:#7229B5;" d="M573.798,356.858c0.209-0.113,0.424-1.25,0.5-1.464c0.466-1.317,0.966-2.622,1.491-3.916
					c1.608-3.969,3.45-7.86,5.645-11.54c2.54-4.258,5.651-8.679,9.984-11.271c2.158-1.29,5.274-1.922,7.773-1.733
					c4.174,0.316,7.176,3.853,5.063,7.821c-1.764,3.314-5.234,5.452-8.094,7.717c-4.446,3.521-9.22,6.631-14.06,9.579
					C579.371,353.713,576.612,355.34,573.798,356.858z"/>
			</g>
		</g>
		<g>
			<path style="fill:none;stroke:#7229B5;stroke-miterlimit:10;" d="M568.373,408.061c0,0,1.661-22.94,14.746-35.846"/>
			<g>
				<path style="fill:#7229B5;" d="M579.404,376.382c0.31-0.167,0.645-1.839,0.766-2.161c0.674-1.792,1.421-3.557,2.244-5.285
					c1.99-4.182,4.465-8.665,8.206-11.536c2.364-1.814,9.171-3.695,10.521,0.51c0.23,0.716,0.048,1.501-0.245,2.194
					c-1.051,2.484-3.348,4.199-5.384,5.848c-2.263,1.832-4.669,3.488-7.112,5.069C585.472,372.915,582.474,374.726,579.404,376.382z
					"/>
			</g>
		</g>
		<g>
			<path style="fill:none;stroke:#7229B5;stroke-miterlimit:10;" d="M539.205,351.264c0,0,13.509,11.499,19.748,47.658"/>
			<g>
				<path style="fill:#7229B5;" d="M543.191,355.829c-0.281-0.169-0.556-1.214-0.689-1.499c-0.624-1.334-1.267-2.659-1.924-3.977
					c-2.015-4.041-4.164-8.021-6.52-11.875c-2.425-3.966-5.057-7.947-8.36-11.246c-1.985-1.983-5.08-4.661-8.133-3.589
					c-1.948,0.683-3.679,2.992-3.918,4.966c-0.388,3.201,2.759,6.48,4.82,8.629c2.208,2.303,4.64,4.388,7.13,6.378
					c4.593,3.67,9.439,7.028,14.386,10.202C541.044,354.5,542.11,355.178,543.191,355.829z"/>
			</g>
		</g>
		<g>
			<path style="fill:none;stroke:#7229B5;stroke-miterlimit:10;" d="M553.34,396.55c0,0-5.804-17.023,1.901-33.709"/>
			<g>
				<path style="fill:#7229B5;" d="M554.088,365.876c-0.195-3.155-0.074-6.361,0.232-9.503c0.47-4.82,1.348-10.703,4.849-14.355
					c1.675-1.748,4.033-2.634,6.458-2.352c8.534,0.991-6.756,20.264-8.85,22.91C555.898,363.688,555.009,364.796,554.088,365.876z"
					/>
			</g>
		</g>
		<g>
			<path style="fill:none;stroke:#7229B5;stroke-miterlimit:10;" d="M553.099,395.867c0,0-11.375-19.991-28.741-26.006"/>
			<g>
				<path style="fill:#7229B5;" d="M533.038,374.056c-0.351-0.044-1.271-1.486-1.5-1.742c-1.281-1.431-2.621-2.811-4.018-4.13
					c-4.615-4.358-12.353-11.079-19.077-7.134c-0.769,0.451-1.479,1.033-1.957,1.785c-2.448,3.852,3.484,5.84,6.116,6.788
					c2.809,1.012,5.721,1.742,8.635,2.381c3.889,0.853,7.825,1.541,11.775,2.049C533.021,374.054,533.03,374.055,533.038,374.056z"
					/>
			</g>
		</g>
		<g>
			<rect x="537.139" y="387.877" style="fill:#F5E073;" width="43.628" height="61.041"/>
			<path style="fill:#6A26A8;" d="M580.268,388.377v60.041h-42.629v-60.041H580.268 M581.268,387.377h-1h-42.629h-1v1v60.041v1h1
				h42.629h1v-1v-60.041V387.377L581.268,387.377z"/>
		</g>
		<path style="fill:#EDD349;" d="M578.26,448.418h-40.621v-60.041C537.639,388.377,543.381,443.638,578.26,448.418z"/>
	</g>
	<g>
		<g>
			<g>
				<path style="fill:#F5E073;" d="M171.963,424.631c-0.112,0-0.226-0.006-0.341-0.018c-1.671-0.167-2.981-1.689-2.981-3.465
					v-35.972c0-0.276,0.224-0.5,0.5-0.5h5.643c0.276,0,0.5,0.224,0.5,0.5v36.133c0,0.888-0.346,1.722-0.973,2.349
					C173.684,424.285,172.85,424.631,171.963,424.631L171.963,424.631z"/>
				<path style="fill:#6A26A8;" d="M174.784,385.177v36.132c0,1.558-1.263,2.821-2.821,2.821c-0.096,0-0.193-0.005-0.291-0.015
					c-1.469-0.147-2.531-1.492-2.531-2.968v-35.972H174.784 M174.784,384.177h-5.643c-0.552,0-1,0.448-1,1v35.972
					c0,2.029,1.507,3.77,3.431,3.963c0.131,0.013,0.262,0.02,0.391,0.02c2.107,0,3.821-1.714,3.821-3.821v-36.132
					C175.784,384.625,175.337,384.177,174.784,384.177L174.784,384.177z"/>
			</g>
			<path style="fill:#7229B5;" d="M172.907,382.418c-0.472-0.629-1.416-0.629-1.888,0l-1.878,2.504v0.256h5.643v-0.256
				L172.907,382.418z"/>
		</g>
		<g>
			<polygon style="fill:#7229B5;" points="163.742,389.528 165.335,390.713 165.335,396.635 163.742,398.056 			"/>
			<g>
				<g>
					<path style="fill:#F5E073;" d="M160.921,416.937c-1.831,0-3.321-1.49-3.321-3.321v-29.443h6.643v29.443
						C164.242,415.447,162.752,416.937,160.921,416.937z"/>
					<path style="fill:#6A26A8;" d="M163.742,384.672v28.943c0,1.558-1.263,2.822-2.821,2.822s-2.821-1.263-2.821-2.822v-28.943
						H163.742 M164.742,383.672h-1h-5.643h-1v1v28.943c0,2.107,1.714,3.822,3.821,3.822s3.821-1.714,3.821-3.822v-28.943V383.672
						L164.742,383.672z"/>
				</g>
				<g>
					<path style="fill:#F5E073;" d="M157.599,385.172v-4.867c0-1.831,1.49-3.321,3.321-3.321c1.832,0,3.321,1.49,3.321,3.321v4.867
						H157.599z"/>
					<path style="fill:#6A26A8;" d="M160.921,377.483c1.558,0,2.821,1.263,2.821,2.822v4.367h-5.643v-4.367
						C158.099,378.747,159.362,377.483,160.921,377.483 M160.921,376.483c-2.107,0-3.821,1.714-3.821,3.822v4.367v1h1h5.643h1v-1
						v-4.367C164.742,378.198,163.028,376.483,160.921,376.483L160.921,376.483z"/>
				</g>
			</g>
		</g>
		<g>
			<path style="fill:#F5E073;" d="M152.116,424.631c-1.832,0-3.321-1.49-3.321-3.321v-33.311c0-1.831,1.49-3.321,3.321-3.321
				c1.831,0,3.321,1.49,3.321,3.321v33.311C155.437,423.141,153.947,424.631,152.116,424.631z"/>
			<path style="fill:#6A26A8;" d="M152.116,385.177c1.558,0,2.821,1.263,2.821,2.821v33.311c0,1.558-1.263,2.821-2.821,2.821
				c-1.558,0-2.821-1.263-2.821-2.821v-33.311C149.294,386.44,150.558,385.177,152.116,385.177 M152.116,384.177
				c-2.107,0-3.821,1.714-3.821,3.821v33.311c0,2.107,1.714,3.821,3.821,3.821c2.107,0,3.821-1.714,3.821-3.821v-33.311
				C155.937,385.892,154.223,384.177,152.116,384.177L152.116,384.177z"/>
		</g>
		<g>
			<polygon style="fill:#7229B5;" points="179.968,398.065 178.375,399.249 178.375,405.171 179.968,406.592 			"/>
			<g>
				<g>
					<path style="fill:#F5E073;" d="M182.789,425.473c-1.831,0-3.321-1.49-3.321-3.321v-29.443h6.643v29.443
						C186.111,423.983,184.621,425.473,182.789,425.473z"/>
					<path style="fill:#6A26A8;" d="M185.611,393.208v28.943c0,1.558-1.263,2.822-2.821,2.822h0c-1.558,0-2.821-1.263-2.821-2.822
						v-28.943H185.611 M186.611,392.208h-1h-5.643h-1v1v28.943c0,2.107,1.714,3.822,3.821,3.822c2.107,0,3.822-1.714,3.822-3.822
						v-28.943V392.208L186.611,392.208z"/>
				</g>
				<path style="fill:#7229B5;" d="M182.789,386.02L182.789,386.02c1.558,0,2.822,1.263,2.822,2.822v4.367h-5.643v-4.367
					C179.968,387.283,181.231,386.02,182.789,386.02z"/>
			</g>
		</g>
		<path style="fill:#62239C;" d="M187.64,401.705v38.71c0,2.9-1.15,5.53-3.02,7.46c-1.95,2.02-4.69,3.28-7.72,3.28h-20.82
			c-5.94,0-10.75-4.81-10.75-10.74v-38.71H187.64z"/>
		<path style="fill:#5A208F;" d="M184.62,447.875c-1.95,2.02-4.69,3.28-7.72,3.28h-20.82c-5.94,0-10.75-4.81-10.75-10.74v-38.71
			C145.33,401.705,158.05,438.265,184.62,447.875z"/>
	</g>
	<g>
		<path style="fill:#EDEDED;" d="M143.941,471.817c-6.689,0-12.132-5.442-12.132-12.132c0-6.69,5.442-12.132,12.132-12.132h462.118
			c6.689,0,12.132,5.442,12.132,12.132c0,6.689-5.442,12.132-12.132,12.132H143.941z"/>
		<path style="fill:#6A26A8;" d="M606.059,448.053c6.424,0,11.632,5.208,11.632,11.632c0,6.424-5.208,11.632-11.632,11.632H143.941
			c-6.424,0-11.632-5.208-11.632-11.632c0-6.424,5.208-11.632,11.632-11.632H606.059 M606.059,447.053H143.941
			c-6.965,0-12.632,5.667-12.632,12.632c0,6.965,5.667,12.632,12.632,12.632h462.118c6.965,0,12.632-5.667,12.632-12.632
			C618.691,452.72,613.024,447.053,606.059,447.053L606.059,447.053z"/>
	</g>
	<g>
		<path style="fill:#7229B5;" d="M296.034,59.585h-96.96c-9.465,0-17.139,7.673-17.139,17.139v37.004
			c0,9.465,7.673,17.139,17.139,17.139h72.218l23.495,17.042l-5.6-17.042h6.847c9.465,0,17.139-7.673,17.139-17.139V76.724
			C313.173,67.258,305.499,59.585,296.034,59.585z"/>
		<path style="fill:#FFFFFF;stroke:#7229B5;stroke-linecap:round;stroke-linejoin:round;stroke-miterlimit:10;" d="M303.29,56.235
			h-96.96c-9.465,0-17.139,7.673-17.139,17.139v37.004c0,9.465,7.673,17.139,17.139,17.139h72.217l23.495,17.042l-5.6-17.042h6.847
			c9.465,0,17.139-7.673,17.139-17.139V73.374C320.429,63.909,312.756,56.235,303.29,56.235z"/>
		<g>
			<g>
				
					<line style="fill:none;stroke:#7229B5;stroke-linecap:round;stroke-linejoin:round;stroke-miterlimit:10;" x1="200.435" y1="97.655" x2="295.904" y2="97.655"/>
			</g>
			
				<line style="fill:none;stroke:#7229B5;stroke-linecap:round;stroke-linejoin:round;stroke-miterlimit:10;" x1="200.435" y1="71.204" x2="249.649" y2="71.204"/>
			
				<line style="fill:none;stroke:#7229B5;stroke-linecap:round;stroke-linejoin:round;stroke-miterlimit:10;" x1="200.545" y1="84.813" x2="260.529" y2="84.813"/>
			
				<line style="fill:none;stroke:#7229B5;stroke-linecap:round;stroke-linejoin:round;stroke-miterlimit:10;" x1="200.724" y1="91.258" x2="280.22" y2="91.258"/>
			
				<line style="fill:none;stroke:#7229B5;stroke-linecap:round;stroke-linejoin:round;stroke-miterlimit:10;" x1="200.843" y1="104.268" x2="295.15" y2="104.268"/>
			
				<line style="fill:none;stroke:#7229B5;stroke-linecap:round;stroke-linejoin:round;stroke-miterlimit:10;" x1="200.848" y1="110.882" x2="295.92" y2="110.882"/>
			
				<line style="fill:none;stroke:#7229B5;stroke-linecap:round;stroke-linejoin:round;stroke-miterlimit:10;" x1="200.898" y1="77.817" x2="295.655" y2="77.817"/>
		</g>
	</g>
</g>
</svg>
