<?xml version="1.0" encoding="utf-8"?>
<!-- Generator: Adobe Illustrator 27.5.0, SVG Export Plug-In . SVG Version: 6.00 Build 0)  -->
<svg version="1.1" xmlns="http://www.w3.org/2000/svg" xmlns:xlink="http://www.w3.org/1999/xlink" x="0px" y="0px"
	 viewBox="0 0 500 500" style="enable-background:new 0 0 500 500;" xml:space="preserve">
<g id="BACKGROUND">
</g>
<g id="OBJECTS">
	<g>
		<g style="opacity:0.13;">
			<path style="fill:#C1BDB2;" d="M120.202,445.939l210.558-2.857c36.428,0.052,72.255-26.439,94.132-67.385
				c21.876-40.945,29.783-95.111,22.636-144.736c-7.147-49.624-28.851-94.224-58.281-123.621
				c-18.137-18.116-39.354-30.77-61.642-34.158c-22.288-3.388-45.633,2.838-64.749,19.567
				c-33.288,29.131-51.317,86.568-86.981,109.494c-16.61,10.677-35.274,12.566-52.91,19.181
				c-34.716,13.021-67.712,50.341-72.32,99.922c-3.382,36.383,5.083,63.46,22.581,92.085
				C87.697,437.107,99.173,448.66,120.202,445.939"/>
		</g>
		<g>
			<path style="fill:#B3DAC9;" d="M408.502,444.496c0,3.259-72.219,5.901-161.306,5.901c-89.087,0-161.306-2.642-161.306-5.901
				c0-3.259,72.219-5.901,161.306-5.901C336.283,438.595,408.502,441.237,408.502,444.496z"/>
			<g>
				<g>
					<g>
						<path style="fill:#B3DAC9;" d="M296.44,412.507c6.133-12.627,13.644-24.989,24.666-33.683
							c4.222-3.33,9.031-6.118,14.327-7.044c5.297-0.926,11.143,0.234,15.049,3.929c0.733,0.693,1.546,1.528,2.551,1.436
							c0.656-0.06,1.199-0.513,1.704-0.935c6.943-5.804,15.316-9.633,23.812-12.748c17.633-6.464,37.302-10.083,55.104-4.1
							c7.699,2.588,15.408,7.715,17.357,15.6c1.933,7.824-2.404,15.881-7.842,21.829c-8.983,9.826-21.179,16.302-33.918,20.172
							c-12.739,3.87-26.085,5.285-39.366,6.22C346.804,424.809,318.127,420.568,296.44,412.507"/>
					</g>
					<g>
						<g>
							<path style="fill:#FFFFFF;" d="M302.535,410.318c9.166-1.164,18.332-2.33,27.477-3.644c9.14-1.313,18.26-2.773,27.327-4.528
								c9.03-1.747,18.007-3.78,26.87-6.246c8.788-2.445,17.398-5.436,26.036-8.357c8.578-2.9,17.218-5.692,26.085-7.576
								c1.093-0.232,2.189-0.449,3.288-0.652c0.723-0.133,0.653-1.287-0.078-1.152c-8.898,1.64-17.567,4.256-26.143,7.104
								c-8.633,2.867-17.196,5.945-25.929,8.502c-8.848,2.591-17.823,4.732-26.857,6.561c-9.069,1.836-18.2,3.353-27.352,4.706
								c-9.141,1.352-18.306,2.538-27.472,3.705c-1.11,0.141-2.22,0.282-3.33,0.423
								C301.723,409.259,301.796,410.412,302.535,410.318L302.535,410.318z"/>
						</g>
						<g>
							<path style="fill:#FFFFFF;" d="M322.625,407.469c5.546-2.793,11.092-5.585,16.638-8.378
								c5.607-2.823,11.213-5.646,16.82-8.469c3.102-1.562,6.204-3.124,9.306-4.686c0.279-0.14,0.321-0.562,0.164-0.8
								c-0.189-0.286-0.521-0.305-0.8-0.164c-5.546,2.793-11.092,5.585-16.638,8.378c-5.607,2.823-11.213,5.646-16.82,8.469
								c-3.102,1.562-6.204,3.124-9.306,4.686c-0.279,0.14-0.321,0.562-0.164,0.8C322.014,407.591,322.346,407.61,322.625,407.469
								L322.625,407.469z"/>
						</g>
						<g>
							<path style="fill:#FFFFFF;" d="M360.518,401.479c6.137,1.363,12.242,2.871,18.34,4.4c6.288,1.576,12.57,3.181,18.869,4.712
								c3.363,0.817,6.731,1.613,10.109,2.363c0.726,0.161,0.944-0.973,0.217-1.134c-6.138-1.363-12.242-2.871-18.34-4.4
								c-6.288-1.576-12.57-3.181-18.869-4.712c-3.363-0.817-6.731-1.613-10.109-2.363
								C360.01,400.184,359.792,401.318,360.518,401.479L360.518,401.479z"/>
						</g>
						<g>
							<path style="fill:#FFFFFF;" d="M395.326,392.468c5.604-5.365,11.787-10.227,18.433-14.24c1.8-1.087,3.641-2.109,5.535-3.022
								c0.281-0.135,0.471-0.41,0.364-0.731c-0.089-0.267-0.449-0.5-0.731-0.364c-7.121,3.43-13.644,8.12-19.641,13.238
								c-1.65,1.408-3.263,2.859-4.829,4.358c-0.225,0.216-0.165,0.622,0.055,0.815C394.764,392.743,395.1,392.684,395.326,392.468
								L395.326,392.468z"/>
						</g>
					</g>
				</g>
				<g>
					<g>
						<path style="fill:#509D7F;" d="M296.032,379.717c-4.087-11.546-4.731-24.287-1.83-36.186
							c1.393-5.713,3.635-11.315,7.333-15.887c3.699-4.572,8.974-8.043,14.809-8.77c0.851-0.106,1.813-0.208,2.337-0.887
							c0.383-0.495,0.419-1.165,0.454-1.79c0.937-16.329,12.032-30.201,23.745-41.616c5.378-5.242,11.066-10.283,17.666-13.866
							c6.6-3.583,14.236-5.64,21.67-4.569c4.361,0.628,8.525,2.308,12.33,4.531c3.567,2.084,6.925,4.738,9.02,8.299
							c2.619,4.45,3.009,9.969,1.888,15.009c-1.121,5.04-3.643,9.666-6.546,13.936c-4.127,6.07-9.086,11.573-14.695,16.306
							c-0.639,0.54-1.338,1.162-1.405,1.997c-0.093,1.165,1.047,1.992,1.967,2.714c5.004,3.925,6.31,11.287,4.513,17.387
							c-1.796,6.1-6.131,11.124-10.809,15.433c-9.648,8.888-21.19,15.563-33.332,20.53c-5.401,2.209-10.968,4.101-16.732,5.008
							c-4.346,0.684-8.758,0.8-13.147,1.116C309.659,378.816,301.61,378.985,296.032,379.717"/>
					</g>
					<g>
						<g>
							<path style="fill:#FFFFFF;" d="M299.714,378.039c5.996-6.62,11.91-13.314,17.739-20.082
								c5.854-6.798,11.621-13.669,17.301-20.613c5.655-6.913,11.224-13.898,16.703-20.951c5.48-7.053,10.87-14.176,16.171-21.365
								c5.3-7.189,10.51-14.445,15.627-21.765c0.645-0.923,1.289-1.847,1.931-2.772c0.419-0.604-0.437-1.38-0.86-0.77
								c-5.095,7.336-10.281,14.609-15.558,21.815c-5.3,7.237-10.692,14.407-16.174,21.508c-5.458,7.07-11.005,14.072-16.639,21.002
								c-5.634,6.931-11.355,13.79-17.162,20.577c-5.807,6.787-11.699,13.5-17.675,20.138c-0.753,0.837-1.508,1.673-2.264,2.507
								C298.353,377.821,299.214,378.59,299.714,378.039L299.714,378.039z"/>
						</g>
						<g>
							<path style="fill:#FFFFFF;" d="M316.057,359.461c1.758-6.075,3.705-12.094,5.775-18.069
								c2.055-5.934,4.234-11.825,6.464-17.696c1.266-3.334,2.55-6.66,3.839-9.985c0.113-0.29,0.045-0.625-0.253-0.776
								c-0.257-0.13-0.663-0.039-0.776,0.253c-2.296,5.921-4.574,11.849-6.768,17.809c-2.197,5.966-4.31,11.964-6.271,18.012
								c-1.099,3.391-2.15,6.797-3.14,10.221C314.719,359.944,315.852,360.171,316.057,359.461L316.057,359.461z"/>
						</g>
						<g>
							<path style="fill:#FFFFFF;" d="M336.908,334.563c5.599-2.646,11.107-5.487,16.49-8.546
								c5.479-3.114,10.835-6.453,15.987-10.084c2.802-1.975,5.541-4.039,8.194-6.209c0.241-0.197,0.347-0.521,0.163-0.8
								c-0.159-0.24-0.557-0.362-0.8-0.163c-4.765,3.898-9.804,7.454-14.993,10.765c-5.262,3.357-10.683,6.464-16.21,9.362
								c-3.035,1.592-6.104,3.119-9.203,4.583c-0.281,0.133-0.469,0.414-0.361,0.733
								C336.267,334.471,336.624,334.697,336.908,334.563L336.908,334.563z"/>
						</g>
						<g>
							<path style="fill:#FFFFFF;" d="M359.146,306.282c1.029-4.832,2.342-9.599,3.855-14.301c1.522-4.732,3.248-9.396,5.116-14.001
								c1.042-2.569,2.13-5.119,3.256-7.652c0.301-0.678-0.727-1.203-1.03-0.523c-2.018,4.54-3.914,9.135-5.644,13.793
								c-1.75,4.71-3.336,9.482-4.683,14.323c-0.748,2.689-1.42,5.4-2.002,8.131C357.86,306.778,358.991,307.01,359.146,306.282
								L359.146,306.282z"/>
						</g>
					</g>
				</g>
				<g>
					<g>
						<path style="fill:#1E976F;" d="M360.154,358.881c3.118-2.59,6.345-5.048,9.672-7.363c3.34-2.325,6.778-4.507,10.303-6.541
							c3.488-2.013,7.06-3.884,10.706-5.594c3.684-1.728,7.441-3.3,11.258-4.71c3.802-1.405,7.664-2.648,11.572-3.724
							c0.485-0.134,0.97-0.264,1.456-0.393c0.35-0.092,0.538-0.513,0.43-0.844c-0.117-0.361-0.493-0.523-0.844-0.431
							c-3.949,1.044-7.854,2.255-11.699,3.633c-3.816,1.367-7.574,2.896-11.261,4.58c-3.739,1.708-7.408,3.569-10.991,5.584
							c-3.546,1.995-7.008,4.141-10.373,6.429s-6.632,4.72-9.789,7.287c-0.39,0.317-0.778,0.637-1.165,0.958
							c-0.278,0.231-0.414,0.595-0.202,0.926C359.405,358.954,359.875,359.113,360.154,358.881L360.154,358.881z"/>
					</g>
					<g>
						<path style="fill:#1E976F;" d="M405.909,332.434c9.048-5.678,19.104-9.747,29.554-11.96c4.17-0.883,8.565-1.463,12.648-0.24
							c1.904,0.57,4.018,2.338,3.209,4.153c-0.27,0.605-0.819,1.034-1.363,1.411c-4.858,3.372-10.837,4.646-16.671,5.613
							C423.935,332.961,415.382,332.083,405.909,332.434"/>
					</g>
					<g>
						<path style="fill:#1E976F;" d="M390.59,338.403c4.09-9.869,9.932-19.008,17.172-26.864c2.889-3.134,6.136-6.152,10.174-7.519
							c1.883-0.637,4.63-0.421,5.021,1.528c0.13,0.65-0.069,1.316-0.294,1.94c-2.009,5.562-6.146,10.062-10.343,14.229
							C405.592,328.395,398.111,332.631,390.59,338.403"/>
					</g>
					<g>
						<path style="fill:#1E976F;" d="M394.627,336.329c10.516-1.88,21.363-1.891,31.883-0.032c4.198,0.742,8.49,1.848,11.819,4.511
							c1.552,1.241,2.852,3.671,1.422,5.052c-0.477,0.46-1.146,0.652-1.792,0.799c-5.767,1.309-11.788,0.253-17.56-1.034
							C411.146,343.562,403.543,339.548,394.627,336.329"/>
					</g>
					<g>
						<path style="fill:#1E976F;" d="M373.959,347.726c1.844-10.522,5.558-20.714,10.915-29.956c2.138-3.688,4.651-7.34,8.294-9.553
							c1.699-1.032,4.427-1.418,5.233,0.399c0.269,0.606,0.219,1.3,0.135,1.957c-0.751,5.866-3.809,11.159-6.999,16.138
							C386.423,334.694,380.044,340.457,373.959,347.726"/>
					</g>
					<g>
						<path style="fill:#1E976F;" d="M363.983,355c-0.365-8.976,0.864-18.014,3.614-26.566c1.097-3.413,2.51-6.863,5.108-9.332
							c1.211-1.151,3.385-1.957,4.371-0.608c0.329,0.45,0.413,1.029,0.461,1.584c0.432,4.954-1.135,9.85-2.867,14.512
							C371.896,342.064,367.684,347.939,363.983,355"/>
					</g>
					<g>
						<path style="fill:#1E976F;" d="M376.713,346.266c10.516-1.88,21.363-1.891,31.883-0.032c4.198,0.741,8.49,1.848,11.819,4.511
							c1.552,1.241,2.852,3.672,1.422,5.052c-0.477,0.46-1.146,0.652-1.792,0.799c-5.767,1.309-11.788,0.253-17.56-1.034
							C393.232,353.5,385.629,349.486,376.713,346.266"/>
					</g>
					<g>
						<path style="fill:#1E976F;" d="M367.606,352.372c8.11-0.11,16.237,1.222,23.889,3.913c3.053,1.074,6.132,2.433,8.297,4.839
							c1.009,1.122,1.683,3.103,0.441,3.96c-0.414,0.286-0.939,0.347-1.441,0.377c-4.482,0.268-8.862-1.266-13.027-2.943
							C379.088,359.831,373.888,355.885,367.606,352.372"/>
					</g>
				</g>
			</g>
			<g>
				<g>
					<g>
						<path style="fill:#B3DAC9;" d="M167.318,424.958c-1.311-12.056-3.819-24.297-10.251-34.577
							c-2.464-3.938-5.563-7.606-9.601-9.902c-4.038-2.296-9.13-3.055-13.383-1.188c-0.798,0.35-1.703,0.793-2.493,0.425
							c-0.516-0.24-0.825-0.766-1.113-1.257c-3.956-6.742-9.651-12.295-15.654-17.303c-12.458-10.393-27.401-19.065-43.621-19.383
							c-7.016-0.138-14.778,1.787-18.659,7.633c-3.851,5.8-2.67,13.616,0.021,20.037c4.444,10.608,12.477,19.427,21.71,26.284
							c9.233,6.857,19.676,11.895,30.204,16.523C122.774,420.294,147.333,425.197,167.318,424.958"/>
					</g>
					<g>
						<g>
							<path style="fill:#FFFFFF;" d="M162.998,421.402c-7.115-3.616-14.23-7.234-21.286-10.966
								c-7.051-3.73-14.043-7.574-20.906-11.641c-6.835-4.051-13.544-8.319-20.034-12.905c-6.435-4.548-12.567-9.488-18.741-14.379
								c-6.132-4.857-12.345-9.644-19.008-13.759c-0.821-0.507-1.65-1.003-2.485-1.488c-0.549-0.319-0.157-1.237,0.399-0.914
								c6.759,3.925,13.048,8.578,19.193,13.392c6.186,4.846,12.254,9.843,18.611,14.466c6.441,4.684,13.117,9.039,19.932,13.158
								c6.841,4.134,13.825,8.027,20.874,11.793c7.041,3.762,14.149,7.396,21.264,11.014c0.862,0.438,1.723,0.876,2.585,1.314
								C163.967,420.777,163.572,421.693,162.998,421.402L162.998,421.402z"/>
						</g>
						<g>
							<path style="fill:#FFFFFF;" d="M147.489,413.234c-3.697-3.886-7.395-7.773-11.092-11.659
								c-3.738-3.929-7.475-7.858-11.213-11.786c-2.068-2.174-4.136-4.348-6.204-6.521c-0.186-0.195-0.098-0.551,0.1-0.698
								c0.237-0.177,0.512-0.096,0.698,0.1c3.697,3.886,7.395,7.773,11.092,11.659c3.738,3.929,7.475,7.858,11.213,11.786
								c2.068,2.174,4.136,4.348,6.204,6.521c0.186,0.195,0.098,0.55-0.1,0.698C147.95,413.512,147.675,413.43,147.489,413.234
								L147.489,413.234z"/>
						</g>
						<g>
							<path style="fill:#FFFFFF;" d="M118.415,397.327c-5.389-0.679-10.793-1.23-16.197-1.763
								c-5.573-0.55-11.149-1.074-16.718-1.663c-2.973-0.315-5.944-0.649-8.91-1.022c-0.637-0.08-0.484-1.066,0.154-0.986
								c5.389,0.679,10.793,1.23,16.197,1.763c5.573,0.55,11.149,1.074,16.718,1.663c2.973,0.315,5.944,0.649,8.91,1.022
								C119.206,396.421,119.053,397.407,118.415,397.327L118.415,397.327z"/>
						</g>
						<g>
							<path style="fill:#FFFFFF;" d="M92.731,379.861c-2.995-5.996-6.608-11.751-10.844-16.949
								c-1.147-1.408-2.347-2.776-3.622-4.07c-0.189-0.192-0.264-0.47-0.083-0.701c0.15-0.191,0.51-0.276,0.701-0.083
								c4.792,4.863,8.731,10.578,12.118,16.487c0.932,1.625,1.821,3.275,2.658,4.951c0.12,0.241-0.047,0.554-0.282,0.647
								C93.108,380.248,92.852,380.102,92.731,379.861L92.731,379.861z"/>
						</g>
					</g>
				</g>
				<g>
					<g>
						<path style="fill:#1E976F;" d="M166.955,357.026c-3.397-2.212-6.699-4.567-9.896-7.06c-3.209-2.502-6.311-5.141-9.297-7.905
							c-2.955-2.736-5.8-5.594-8.512-8.571c-2.741-3.008-5.355-6.131-7.831-9.359c-2.467-3.216-4.798-6.537-6.982-9.951
							c-0.271-0.423-0.539-0.849-0.806-1.275c-0.192-0.307-0.649-0.362-0.934-0.161c-0.31,0.219-0.354,0.626-0.161,0.934
							c2.166,3.464,4.479,6.834,6.933,10.1c2.435,3.24,5.008,6.377,7.708,9.4c2.738,3.066,5.601,6.02,8.587,8.845
							c2.956,2.797,6.029,5.469,9.211,8.005c3.182,2.536,6.471,4.938,9.858,7.193c0.419,0.279,0.839,0.555,1.26,0.829
							c0.303,0.197,0.691,0.22,0.944-0.081C167.247,357.72,167.26,357.225,166.955,357.026L166.955,357.026z"/>
					</g>
					<g>
						<path style="fill:#1E976F;" d="M128.152,321.149c-8.102-6.962-14.965-15.363-20.172-24.69
							c-2.078-3.722-3.933-7.748-3.973-12.011c-0.019-1.988,1.044-4.53,3.017-4.294c0.658,0.079,1.229,0.476,1.751,0.884
							c4.659,3.643,7.645,8.976,10.295,14.263C123.319,303.775,125.013,312.204,128.152,321.149"/>
					</g>
					<g>
						<path style="fill:#1E976F;" d="M138.387,334.015c-10.637-0.986-21.096-3.861-30.742-8.451
							c-3.849-1.832-7.693-4.041-10.193-7.493c-1.166-1.61-1.772-4.298-0.027-5.248c0.582-0.317,1.278-0.324,1.94-0.293
							c5.907,0.273,11.43,2.892,16.652,5.668C124.387,322.647,130.648,328.539,138.387,334.015"/>
					</g>
					<g>
						<path style="fill:#1E976F;" d="M135.211,330.773c-4.908-9.488-8.129-19.846-9.467-30.445
							c-0.534-4.229-0.747-8.657,0.811-12.625c0.726-1.85,2.663-3.811,4.405-2.853c0.58,0.319,0.962,0.901,1.293,1.475
							c2.957,5.121,3.73,11.185,4.21,17.079C137.231,312.853,135.647,321.303,135.211,330.773"/>
					</g>
					<g>
						<path style="fill:#1E976F;" d="M152.215,347.142c-10.597,1.352-21.431,0.822-31.845-1.559
							c-4.155-0.95-8.388-2.27-11.579-5.095c-1.488-1.317-2.665-3.809-1.168-5.117c0.499-0.436,1.177-0.594,1.829-0.708
							c5.825-1.019,11.786,0.336,17.487,1.909C136.077,339.093,143.47,343.481,152.215,347.142"/>
					</g>
					<g>
						<path style="fill:#1E976F;" d="M162.115,354.518c-8.466,3.005-17.463,4.506-26.446,4.411
							c-3.584-0.038-7.298-0.366-10.426-2.117c-1.458-0.816-2.871-2.654-1.874-3.996c0.332-0.447,0.861-0.699,1.377-0.909
							c4.604-1.879,9.745-1.831,14.71-1.557C147.417,350.788,154.276,353.073,162.115,354.518"/>
					</g>
					<g>
						<path style="fill:#1E976F;" d="M150.005,344.943c-4.908-9.488-8.129-19.846-9.467-30.445
							c-0.534-4.229-0.747-8.657,0.81-12.625c0.726-1.85,2.663-3.811,4.405-2.853c0.58,0.319,0.962,0.901,1.293,1.475
							c2.957,5.121,3.73,11.185,4.21,17.079C152.025,327.023,150.442,335.473,150.005,344.943"/>
					</g>
					<g>
						<path style="fill:#1E976F;" d="M158.533,351.835c-2.505-7.714-3.639-15.871-3.333-23.977c0.122-3.234,0.509-6.578,2.166-9.358
							c0.773-1.296,2.465-2.526,3.652-1.594c0.396,0.311,0.609,0.794,0.787,1.265c1.583,4.202,1.413,8.84,1.045,13.315
							C162.259,338.66,160.029,344.794,158.533,351.835"/>
					</g>
				</g>
			</g>
			<g>
				<path style="fill:#E0AB6C;" d="M271.655,232.415c0-18.832-13.575-30.746-34.095-30.746c-16.849,0-30.405,7.483-40.301,20.222
					c-3.366,4.333-9.481,5.356-13.946,2.167l-22.162-15.832c-4.375-3.125-5.589-9.171-2.632-13.662
					c17.585-26.707,45.642-43.242,84.408-43.242c47.354,0,80.186,25.75,80.186,71.1c0,57.12-45.762,67.151-52.27,100.94
					c-0.916,4.758-5.059,8.209-9.905,8.209h-27.734c-6.104,0-10.87-5.388-10.007-11.43
					C229.52,275.856,271.655,263.342,271.655,232.415z M216.093,393.064c0-19.601,12.628-29.674,30.307-29.674
					c17.679,0,30.307,10.074,30.307,29.674c0,19.216-12.627,30.75-30.307,30.75C228.721,423.814,216.093,412.28,216.093,393.064z"/>
				<path style="fill:#F3D1A4;" d="M278.049,232.241c0-18.832-13.575-30.746-34.095-30.746c-16.849,0-30.405,7.483-40.301,20.221
					c-3.366,4.333-9.481,5.356-13.946,2.167l-22.162-15.832c-4.375-3.125-5.589-9.171-2.632-13.662
					c17.585-26.707,45.642-43.242,84.408-43.242c47.354,0,80.186,25.75,80.186,71.1c0,57.12-45.762,67.15-52.27,100.94
					c-0.916,4.758-5.059,8.209-9.905,8.209h-27.734c-6.103,0-10.87-5.388-10.007-11.43
					C235.913,275.683,278.049,263.169,278.049,232.241z M222.487,392.89c0-19.601,12.628-29.674,30.307-29.674
					c17.679,0,30.307,10.074,30.307,29.674c0,19.216-12.627,30.75-30.307,30.75C235.115,423.64,222.487,412.107,222.487,392.89z"/>
			</g>
			<g>
				<path style="fill:#B3DAC9;" d="M391.147,166.338c0.892-3.622-1.154-6.556-5.101-7.528c-3.24-0.798-6.202-0.001-8.708,1.98
					c-0.853,0.674-2.077,0.581-2.785-0.244l-3.512-4.094c-0.693-0.808-0.641-2.029,0.141-2.752
					c4.647-4.303,10.826-6.154,18.281-4.318c9.107,2.243,14.201,8.75,12.053,17.471c-2.705,10.985-11.981,10.747-14.833,16.937
					c-0.402,0.872-1.362,1.339-2.294,1.11l-5.334-1.313c-1.174-0.289-1.835-1.551-1.383-2.672
					C380.986,172.697,389.682,172.286,391.147,166.338z M372.853,194.601c0.928-3.77,3.834-5.109,7.234-4.271
					c3.4,0.837,5.351,3.373,4.423,7.142c-0.91,3.696-3.885,5.316-7.285,4.478C373.825,201.113,371.943,198.297,372.853,194.601z"/>
				<path style="fill:#B3DAC9;" d="M119.404,215.46c-1.805-3.264-5.299-4.029-8.856-2.062c-2.921,1.615-4.553,4.211-5.048,7.367
					c-0.168,1.074-1.13,1.837-2.21,1.712l-5.359-0.621c-1.058-0.122-1.848-1.054-1.766-2.116
					c0.489-6.314,3.768-11.869,10.487-15.584c8.208-4.538,16.367-3.22,20.712,4.64c5.474,9.901-1.497,16.025,0.613,22.506
					c0.297,0.912-0.09,1.908-0.93,2.372l-4.807,2.658c-1.058,0.585-2.4,0.108-2.83-1.022
					C116.263,227.028,122.368,220.821,119.404,215.46z M125.168,248.631c-1.878-3.398-0.655-6.354,2.41-8.048
					c3.064-1.694,6.218-1.158,8.097,2.239c1.841,3.331,0.758,6.54-2.307,8.234C130.303,252.751,127.009,251.962,125.168,248.631z"/>
				<path style="fill:#B3DAC9;" d="M255.26,97.834c0.052-3.02-2.091-4.968-5.382-5.025c-2.702-0.047-4.896,1.115-6.519,3.131
					c-0.552,0.685-1.535,0.833-2.242,0.309l-3.51-2.6c-0.693-0.513-0.871-1.486-0.384-2.198c2.894-4.234,7.439-6.807,13.656-6.699
					c7.594,0.132,12.787,4.352,12.661,11.624c-0.159,9.16-7.525,10.641-8.663,16.041c-0.16,0.761-0.834,1.302-1.611,1.289
					l-4.447-0.077c-0.979-0.017-1.728-0.894-1.573-1.861C248.382,104.683,255.174,102.793,255.26,97.834z M245.903,123.44
					c0.054-3.143,2.107-4.723,4.942-4.674c2.835,0.049,4.832,1.7,4.777,4.843c-0.053,3.081-2.11,4.896-4.945,4.847
					C247.842,128.406,245.849,126.522,245.903,123.44z"/>
			</g>
			<g>
				<g>
					<path style="fill:#FF9670;" d="M328.133,417.825c0,0-2.363,7.09-1.091,16.09c0,0-7.612,4.022-15.072-1.091
						c0,0,6.198-4.716,4.255-17.362"/>
					<path style="fill:#602B29;" d="M294.62,441.542c0.223-0.464,0.568-0.867,1.032-1.131c2.53-1.438,8.692-4.849,18.006-9.428
						c0,0,5.217,1.75,13.14,0.753c0,0,0.841,5.193,0.747,9.493C322.694,441.443,303.974,442.195,294.62,441.542z"/>
					<path style="fill:#400E09;" d="M327.545,441.228c-0.023,1.072-0.067,2.097-0.14,2.977H294.35v-1.555
						c0-0.394,0.106-0.766,0.27-1.108C303.974,442.195,322.694,441.443,327.545,441.228z"/>
					<path style="fill:#400E09;" d="M305.55,436.393c0,0.323-0.262,0.585-0.585,0.585c-0.323,0-0.585-0.262-0.585-0.585
						c0-0.323,0.262-0.585,0.585-0.585C305.288,435.808,305.55,436.07,305.55,436.393z"/>
					<path style="fill:#400E09;" d="M309.933,434.516c0,0.323-0.262,0.585-0.585,0.585c-0.323,0-0.585-0.262-0.585-0.585
						c0-0.323,0.262-0.585,0.585-0.585C309.671,433.931,309.933,434.193,309.933,434.516z"/>
					<path style="fill:#400E09;" d="M314.256,432.23c0,0.323-0.262,0.585-0.585,0.585c-0.323,0-0.585-0.262-0.585-0.585
						c0-0.323,0.262-0.585,0.585-0.585C313.994,431.644,314.256,431.906,314.256,432.23z"/>
				</g>
				<g>
					<path style="fill:#FF9670;" d="M348.917,414.275c0,0,3.785,14.462,2.051,20.22c0,0,7.612,4.022,15.072-1.091
						c0,0-7.275-2.453-4.798-22.998"/>
					<path style="fill:#602B29;" d="M383.389,442.121c-0.223-0.464-0.568-0.867-1.032-1.131c-2.53-1.438-8.692-4.849-18.006-9.428
						c0,0-5.217,1.75-13.14,0.753c0,0-0.841,5.193-0.746,9.493C355.316,442.022,374.035,442.775,383.389,442.121z"/>
					<path style="fill:#400E09;" d="M350.464,441.808c0.023,1.072,0.066,2.097,0.14,2.976h33.056v-1.556
						c0-0.394-0.106-0.765-0.27-1.108C374.035,442.775,355.316,442.022,350.464,441.808z"/>
					<path style="fill:#400E09;" d="M365.608,433.187c0,0.323-0.262,0.585-0.585,0.585c-0.323,0-0.585-0.262-0.585-0.585
						c0-0.323,0.262-0.585,0.585-0.585C365.346,432.602,365.608,432.864,365.608,433.187z"/>
					<path style="fill:#400E09;" d="M375.611,438.01c0,0.323-0.262,0.585-0.585,0.585c-0.323,0-0.585-0.262-0.585-0.585
						c0-0.323,0.262-0.585,0.585-0.585C375.349,437.425,375.611,437.687,375.611,438.01z"/>
					<path style="fill:#400E09;" d="M370.109,435.724c0,0.323-0.262,0.585-0.585,0.585c-0.323,0-0.585-0.262-0.585-0.585
						c0-0.323,0.262-0.585,0.585-0.585C369.847,435.138,370.109,435.4,370.109,435.724z"/>
				</g>
				<g>
					<g>
						<path style="fill:#FF9670;" d="M324.06,184.791c2.405,3.987,2.824,8.785,1.86,13.239c-0.964,4.454-3.227,8.605-5.923,12.438
							c4.905,3.297,10.884,5.277,16.991,5.629c2.391,0.137,4.892,0.009,7.006-1.008c-2.165-1.905-3.295-4.563-4.08-7.196
							c-1.542-5.169-1.998-10.6-1.336-15.919"/>
					</g>
					<g>
						<path style="fill:#FC7F51;" d="M330.689,193.564c1.895,1.033,5.018,2.481,7.605,2.992c0.007-1.53,0.094-3.06,0.284-4.581
							l-14.517-7.184c0.568,0.942,1.017,1.932,1.371,2.949C326.724,190.032,328.295,192.258,330.689,193.564z"/>
					</g>
				</g>
				<g>
					<g>
						
							<rect x="346.616" y="173.561" transform="matrix(0.9807 -0.1954 0.1954 0.9807 -27.2525 71.5062)" style="fill:#D03711;" width="4.413" height="0.658"/>
					</g>
					<g>
						<path style="fill:#FF9670;" d="M332.151,162.051c4.035-1.098,8.504,0.455,11.516,3.357c3.011,2.902,5.213,7.404,5.881,11.532
							c0.669,4.128,0.456,6.724,0.067,10.888c-0.103,1.101-0.815,3.464-1.502,4.33c-0.688,0.867-1.56,1.684-2.61,2.034
							c-1.663,0.555-4.824,0.688-7.419,0.222c-4.115-0.739-7.721-1.97-10.65-4.954c-2.929-2.984-3.055-5.774-2.49-9.917"/>
					</g>
					<g>
						<g>
							<path style="fill:#FF9670;" d="M325.755,182.976c-0.598-0.473-1.247-0.905-1.98-1.114c-0.733-0.209-1.565-0.17-2.203,0.247
								c-0.612,0.4-0.98,1.112-1.064,1.839s0.096,1.465,0.399,2.13c0.542,1.187,1.563,2.221,2.844,2.47
								c1.28,0.249,2.766-0.488,3.086-1.752c0.212-0.837-0.087-1.714-0.433-2.505"/>
						</g>
						<g>
							<path style="fill:#FC7F51;" d="M324.764,183.792c-0.212-0.168-0.442-0.321-0.702-0.395c-0.26-0.074-0.556-0.06-0.782,0.088
								c-0.217,0.142-0.348,0.395-0.378,0.653c-0.029,0.258,0.034,0.52,0.142,0.756c0.192,0.421,0.555,0.788,1.009,0.877
								c0.454,0.088,0.982-0.173,1.095-0.622c0.075-0.297-0.031-0.608-0.154-0.889"/>
						</g>
					</g>
					<g>
						<g>
							<path style="fill:#2D0E0B;" d="M320.645,169.128c-1.421,0.205-2.871,0.214-4.295,0.027c-1.23-0.161-2.457-0.475-3.531-1.097
								c-1.912-1.108-3.192-3.154-3.589-5.327c-0.397-2.174,0.037-4.451,0.987-6.446c0.811-1.705,2.05-3.277,3.751-4.097
								c1.81-0.873,3.935-0.805,5.908-0.427c2.361,0.452,4.8,1.451,6.075,3.488c1.502,2.398,0.986,5.514,0.16,8.22"/>
						</g>
						<g>
							<path style="fill:#2D0E0B;" d="M349.203,169.93c-0.811-4.955-4.68-9.173-9.424-10.818c-4.744-1.645-10.177-0.831-14.48,1.755
								c-1.392,0.837-2.674,1.844-3.95,2.848c-1.105,0.869-2.222,1.75-3.099,2.849c-1.586,1.99-2.28,4.597-2.235,7.141
								c0.045,2.544,0.783,5.036,1.814,7.363c0.336,0.76,0.745,1.551,1.468,1.961c1.53,0.867,3.36-0.402,5.11-0.567
								c0.202-0.019,0.419-0.019,0.588,0.092c0.258,0.169,0.306,0.521,0.333,0.829c0.411,4.684,1.712,9.288,3.811,13.494
								c0.424,0.849,0.901,1.708,1.653,2.288c-1.641-5.42-2.41-10.295-2.286-15.956c0.016-0.012,0.064-0.814,0.066-0.835
								c0.073-0.865,0.276-2.337,0.339-2.639c0.557-2.697,1.144-3.586,1.701-6.283c0.509,1.095,1.018,2.191,1.527,3.287
								c0.155,0.334,0.348,0.703,0.701,0.811c0.345,0.106,0.705-0.08,1.018-0.259c1.958-1.124,3.916-2.248,5.874-3.372
								c0.227-0.13,0.467-0.275,0.574-0.513c0.09-0.2,0.069-0.43,0.046-0.648c-0.121-1.161-0.242-2.322-0.362-3.483
								c1.015,0.962,2.03,1.924,3.045,2.885c0.191,0.181,0.398,0.371,0.657,0.419c0.25,0.047,0.502-0.045,0.74-0.136
								c1.429-0.547,2.858-1.094,4.287-1.641c0.16-0.061,0.33-0.13,0.426-0.272C349.26,170.359,349.236,170.133,349.203,169.93z"/>
						</g>
						<path style="fill:#D03711;" d="M316.877,169.926c2.209-3.125,5.587-6.99,10.271-9.963c1.382-0.877,0.62-3.03-1.003-2.814
							c-4.577,0.608-10.289,3.127-12.019,11.572C313.796,170.335,315.925,171.273,316.877,169.926z"/>
					</g>
					<g>
						<path style="fill:#2D0E0B;" d="M339.024,175.118c-1.985,0.023-4.508,0.247-5.473,1.436c-0.479,0.591-1.107,0.504-0.673-0.131
							c1.346-1.969,3.303-2.274,6.185-2.531c0.314-0.028,0.589,0.298,0.577,0.659C339.63,174.849,339.344,175.184,339.024,175.118
							L339.024,175.118z"/>
					</g>
					<g>
						<path style="fill:#FC7F51;" d="M332.924,184.984c0.448,1.446,2.534,2.085,4.659,1.427c2.125-0.658,3.484-2.365,3.036-3.811
							c-0.448-1.447-2.534-2.085-4.659-1.427C333.835,181.831,332.476,183.537,332.924,184.984z"/>
						<path style="fill:#2D0E0B;" d="M346.235,174.495c0.17,0.547,0.563,0.912,0.879,0.814c0.316-0.098,0.435-0.621,0.265-1.168
							c-0.17-0.547-0.563-0.912-0.879-0.814C346.184,173.424,346.065,173.947,346.235,174.495z"/>
						<path style="fill:#2D0E0B;" d="M337.122,178.148c0.191,0.618,0.695,1.011,1.124,0.878c0.429-0.133,0.622-0.742,0.43-1.36
							c-0.191-0.618-0.695-1.011-1.124-0.878C337.123,176.921,336.93,177.53,337.122,178.148z"/>
						<path style="fill:#F46E45;" d="M345.037,180.743c0.331-0.199,0.592-0.467,0.815-0.771c-1.352-0.693-2.376-1.998-2.69-3.489
							c-0.042-0.202,0.033-0.413,0.245-0.482c0.18-0.059,0.439,0.042,0.482,0.245c0.307,1.464,1.322,2.679,2.711,3.237
							c0.189,0.076,0.258,0.344,0.168,0.514c-0.307,0.572-0.752,1.049-1.309,1.384C345.038,181.634,344.615,180.997,345.037,180.743
							z"/>
						<path style="fill:#E53E3E;" d="M347.627,183.796c0,0-1.629,1.648-4.251,1.429
							C343.377,185.225,347.523,187.176,347.627,183.796z"/>
					</g>
					<g>
						<g>
							<path style="fill:#D03711;" d="M337.222,183.047c-0.745,0-1.488-0.192-2.17-0.57c-1.074-0.595-1.871-1.583-2.242-2.779
								c-0.766-2.476,0.546-5.09,2.926-5.828c1.156-0.36,2.385-0.227,3.467,0.372c1.074,0.596,1.871,1.583,2.242,2.781
								c0.766,2.475-0.546,5.089-2.926,5.827C338.093,182.981,337.656,183.047,337.222,183.047z M337.031,174.331
								c-0.37,0-0.74,0.056-1.101,0.168c-2.034,0.63-3.152,2.875-2.491,5.005c0.32,1.033,1.006,1.885,1.932,2.398
								c0.919,0.511,1.967,0.625,2.951,0.32c2.034-0.63,3.152-2.875,2.491-5.005c-0.32-1.034-1.006-1.886-1.932-2.399
								C338.3,174.495,337.666,174.331,337.031,174.331z"/>
						</g>
						<g>
							<path style="fill:#D03711;" d="M347.693,179.027c-1.857,0-3.632-1.493-4.189-3.673c-0.64-2.512,0.577-4.999,2.712-5.543
								c1.045-0.267,2.148-0.036,3.103,0.651c0.938,0.674,1.624,1.71,1.931,2.915l0,0c0.308,1.207,0.202,2.444-0.298,3.485
								c-0.51,1.061-1.367,1.792-2.413,2.058C348.259,178.992,347.975,179.027,347.693,179.027z M347.073,170.362
								c-0.234,0-0.465,0.028-0.694,0.087c-1.783,0.455-2.787,2.583-2.237,4.743c0.551,2.158,2.448,3.548,4.236,3.091
								c0.853-0.218,1.557-0.824,1.981-1.706c0.434-0.901,0.524-1.98,0.254-3.036v-0.001c-0.27-1.056-0.865-1.96-1.678-2.543
								C348.354,170.578,347.71,170.362,347.073,170.362z"/>
						</g>
						<g>
							
								<rect x="328.754" y="179.703" transform="matrix(0.9807 -0.1954 0.1954 0.9807 -28.7968 68.1345)" style="fill:#D03711;" width="4.413" height="0.658"/>
						</g>
						<g>
							<path style="fill:#D03711;" d="M341.214,176.854l-0.519-0.405c0.065-0.083,1.596-2.01,3.337-1.223l-0.27,0.6
								C342.49,175.253,341.225,176.838,341.214,176.854z"/>
						</g>
					</g>
				</g>
				<g>
					<g>
						<path style="fill:#EF7926;" d="M310.389,261.008c0,0-4.637,11.699-6.771,33.409c-2.134,21.71-12.939,127.336-12.939,127.336
							s36.156,4.422,48.131,1.801c0,0-4.375-109.579-2.218-129.418l8.43,128.95c0,0,28.972,1.638,45.619-3.228
							c0,0-24.754-133.459-36.04-158.178"/>
						<path style="fill:#E26A1A;" d="M336.013,309.839c-0.135-0.794-0.266-1.589-0.393-2.384
							c-1.935,27.046-4.035,54.187-6.983,81.098c-1.029,9.396-0.109,22.761-9.715,28.018c-4.286,2.346-9.259,3.081-14.008,3.875
							c-3.79,0.634-7.582,1.189-11.386,1.633c8.748,0.972,35.339,3.649,45.281,1.473
							C338.809,423.553,335.728,346.375,336.013,309.839z"/>
						<path style="fill:#E26A1A;" d="M319.143,268.971c11.665-1.929,24.824-1.61,35.464-7.278c-0.002-0.004-0.004-1.131-0.006-1.135
							l-44.212,0.45c0,0-2.48,6.266-4.648,18.123C308.655,274.079,312.673,270.041,319.143,268.971z"/>
						<path style="fill:#E26A1A;" d="M377.207,419.531c-5.932-0.786-13.012-1.097-18.511-3.598c-3.959-1.801-6.28-4.944-7.56-9.038
							c-1.931-6.18-2.69-12.98-3.715-19.356c-2.421-15.067-3.149-30.341-5.394-45.43c-0.967-6.495-2.276-12.924-3.565-19.355
							l6.559,100.332c0,0,25.484,1.44,42.384-2.395C383.893,420.564,380.285,419.938,377.207,419.531z"/>
					</g>
					<g>
						<g>
							<path style="fill:#F3D1A4;" d="M300.773,421.696c-0.134-10.597-0.023-21.196,0.339-31.787
								c0.362-10.59,0.971-21.171,1.828-31.732c0.853-10.505,1.949-20.991,3.29-31.445c1.355-10.57,2.962-21.109,4.817-31.603
								c1.841-10.417,3.926-20.792,6.255-31.111c0.288-1.276,0.58-2.552,0.876-3.827c0.111-0.479-0.627-0.684-0.738-0.203
								c-2.399,10.356-4.556,20.768-6.464,31.225c-1.894,10.379-3.544,20.802-4.951,31.259c-1.415,10.514-2.585,21.061-3.507,31.629
								c-0.921,10.555-1.594,21.132-2.02,31.719c-0.428,10.641-0.605,21.292-0.53,31.942c0.009,1.311,0.023,2.623,0.039,3.934
								C300.014,422.188,300.779,422.19,300.773,421.696L300.773,421.696z"/>
						</g>
						<g>
							<path style="fill:#F3D1A4;" d="M324.499,258.129c0.048,10.676-0.221,21.351-0.632,32.018
								c-0.419,10.879-0.986,21.751-1.539,32.624c-0.554,10.892-1.098,21.785-1.465,32.685c-0.363,10.79-0.44,21.575-0.454,32.369
								c-0.015,10.472-0.035,20.944-0.248,31.414c-0.025,1.231-0.053,2.462-0.084,3.693c-0.012,0.493,0.753,0.492,0.765,0
								c0.259-10.321,0.305-20.646,0.326-30.97c0.022-10.824,0.016-21.643,0.334-32.463c0.319-10.88,0.837-21.753,1.384-32.624
								c0.548-10.883,1.129-21.764,1.584-32.651c0.447-10.705,0.773-21.418,0.801-32.133c0.003-1.321,0.002-2.643-0.004-3.964
								C325.262,257.636,324.497,257.635,324.499,258.129L324.499,258.129z"/>
						</g>
						<g>
							<path style="fill:#F3D1A4;" d="M334.076,260.314c0.981,8.904,1.682,17.838,2.092,26.787c0.116,2.533,0.209,5.068,0.279,7.603
								c0.014,0.491,0.779,0.493,0.765,0c-0.249-8.945-0.782-17.882-1.603-26.793c-0.233-2.534-0.49-5.067-0.769-7.596
								C334.788,259.829,334.022,259.824,334.076,260.314L334.076,260.314z"/>
						</g>
						<g>
							<path style="fill:#F3D1A4;" d="M342.292,261.52c2.348,10.334,4.113,20.793,5.466,31.302
								c1.352,10.496,2.305,21.04,3.071,31.594c0.764,10.53,1.34,21.072,1.936,31.612c0.599,10.596,1.216,21.191,2.062,31.771
								c0.835,10.444,1.895,20.873,3.373,31.247c0.19,1.331,0.387,2.66,0.59,3.989c0.074,0.485,0.812,0.279,0.738-0.203
								c-1.606-10.495-2.758-21.053-3.655-31.63c-0.897-10.574-1.544-21.167-2.149-31.761c-0.602-10.542-1.163-21.086-1.889-31.62
								c-0.728-10.56-1.621-21.111-2.89-31.621c-1.253-10.378-2.871-20.717-5.047-30.944c-0.28-1.315-0.57-2.628-0.867-3.939
								C342.921,260.837,342.183,261.04,342.292,261.52L342.292,261.52z"/>
						</g>
						<g>
							<path style="fill:#F3D1A4;" d="M350.963,260.844c2.627,10.316,5.12,20.666,7.475,31.048
								c2.353,10.376,4.569,20.783,6.647,31.218c2.077,10.43,4.015,20.887,5.815,31.369c1.799,10.477,3.459,20.978,4.979,31.499
								c1.53,10.587,2.917,21.195,4.163,31.819c0.152,1.3,0.302,2.599,0.451,3.899c0.055,0.484,0.821,0.489,0.765,0
								c-1.202-10.54-2.541-21.064-4.02-31.568c-1.482-10.526-3.103-21.032-4.863-31.515c-1.77-10.539-3.68-21.054-5.73-31.542
								c-2.051-10.493-4.241-20.958-6.57-31.393c-2.33-10.44-4.8-20.849-7.407-31.223c-0.32-1.272-0.642-2.543-0.965-3.814
								C351.579,260.164,350.841,260.366,350.963,260.844L350.963,260.844z"/>
						</g>
					</g>
				</g>
				<g>
					<g>
						<path style="fill:#8969E2;" d="M354.343,208.142c2.857,0.902,5.063,3.251,6.527,5.866c1.463,2.615,2.297,5.524,3.285,8.353
							c2.536,7.262,6.207,14.416,6.095,22.108c-0.035,2.393-0.501,4.907-2.054,6.728c-1.716,2.013-4.421,2.822-6.969,3.533
							c-1.369,0.382-2.777,0.768-4.191,0.62c-2.201-0.23-4.112-1.761-5.267-3.649c-1.154-1.888-1.649-4.103-1.953-6.296
							c-0.805-5.81-0.392-11.712,0.022-17.563c0.41-5.789,0.865-11.747,3.439-16.948"/>
					</g>
					<g>
						<g>
							<path style="fill:#8969E2;" d="M324.838,202.88c-5.269,1.469-12.494,4.085-17.106,7.026c-0.718,0.458-0.29,1.436-0.687,2.189
								c-0.872,1.653,1.223,2.763,1.932,4.492c1.942,4.734,1.003,10.112,1.715,15.178c1.067,7.592,5.859,14.58,5.364,22.23
								c-0.039,0.605-0.105,1.245,0.166,1.787c0.479,0.955,1.73,1.154,2.795,1.232c9.519,0.697,19.056,1.163,28.598,1.396
								c0.553,0.013,1.15,0.014,1.601-0.307c0.56-0.399,0.71-1.151,0.83-1.828c0.655-3.701,1.71-7.33,3.141-10.805
								c1.45-3.52,3.306-6.953,3.805-10.727c0.221-1.673,0.167-3.369,0.114-5.056c-0.172-5.389-0.345-10.779-0.517-16.168
								c-0.03-0.925-0.072-1.895-0.542-2.692c-0.483-0.819-1.344-1.33-2.179-1.786c-3.868-2.112-7.963-3.808-12.192-5.047
								c-0.848-0.249-1.736-0.481-2.606-0.326c-1.269,0.225-2.241,1.215-3.348,1.875
								C332.944,207.201,326.948,205.334,324.838,202.88"/>
						</g>
						<g>
							<path style="fill:#FF9670;" d="M353.56,210.863c0.154-1.491-0.897-2.86-2.122-3.726c-1.224-0.865-2.659-1.402-3.867-2.29
								c-1.208-0.888-2.214-2.307-1.978-3.788c0.099-0.622,0.407-1.189,0.71-1.742c0.613-1.118,1.226-2.237,1.84-3.355
								c0.29-0.528,0.582-1.064,0.724-1.65c0.323-1.335-0.172-2.716-0.66-4c-0.533-1.402-1.066-2.805-1.6-4.207
								c-0.088-0.232-0.177-0.492-0.081-0.722c0.221-0.534,1.026-0.299,1.502,0.031c1.692,1.173,3.283,2.491,4.75,3.934
								c1.64,1.613,3.149,3.423,4.014,5.554c0.611,1.505,0.881,3.123,1.327,4.685c0.796,2.786,2.146,5.376,3.309,8.03
								c2.114,4.826,3.618,9.892,5.117,14.942c0.834,2.811,1.672,5.639,2.005,8.552c0.243,2.128,0.215,4.276,0.174,6.417
								c-0.064,3.365-0.159,6.755-0.909,10.036c-0.433,1.896-1.56,4.105-3.505,4.077c-1.467-0.021-2.543-1.348-3.313-2.597
								c-3.197-5.191-4.947-11.168-5.85-17.198C354.244,225.819,353.647,216.96,353.56,210.863"/>
						</g>
						<g>
							<path style="fill:#FF9670;" d="M316.278,248.85c12.155-1.332,24.447,2.292,36.604,0.977c2.507-0.271,5.402-0.632,7.218,1.118
								c1.641,1.581,1.571,4.404,0.271,6.276c-1.3,1.871-3.535,2.9-5.771,3.337c-2.237,0.437-4.536,0.365-6.811,0.507
								c-2.892,0.181-5.751,0.711-8.637,0.969c-7.231,0.646-14.611-0.446-21.344-3.159"/>
						</g>
						<g>
							<path style="fill:#7359D1;" d="M324.472,202.65c0,0,9.306,6.475,14.776,0.783c0,0,4.092,1.033,8.015,2.564
								c0,0-4.266,8.371-12.683,1.147c0,0-8.048,10.602-16.165-1.952L324.472,202.65z"/>
							<path style="fill:#A694EA;" d="M324.678,202.167c0,0,9.297,5.116,14.016,0.206c0,0,2.978,1.398,6.363,2.72
								c0,0-3.68,7.221-10.941,0.99c0,0-6.943,9.146-13.945-1.684L324.678,202.167z"/>
						</g>
						<path style="fill:#8969E2;" d="M308.709,209.936c0,0,3.819,1.079,5.9,16.926c2.081,15.847,3.807,16.327,3.807,16.327
							s18.431,5.127,21.484,6.578l1.105,13.285c0,0-26.475,0.97-35.199-2.043c-8.724-3.013-3.842-41.189-3.842-41.189
							S303.689,209.017,308.709,209.936z"/>
						<g>
							<g>
								<path style="fill:#F3D1A4;" d="M311.742,217.932c0.492,0,0.493-0.765,0-0.765
									C311.25,217.167,311.249,217.932,311.742,217.932L311.742,217.932z"/>
							</g>
							<g>
								<path style="fill:#F3D1A4;" d="M304.826,232.393c0.493,0,0.493-0.765,0-0.765
									C304.334,231.628,304.333,232.393,304.826,232.393L304.826,232.393z"/>
							</g>
							<g>
								<path style="fill:#F3D1A4;" d="M320.545,237.213c0.492,0,0.493-0.765,0-0.765
									C320.052,236.448,320.051,237.213,320.545,237.213L320.545,237.213z"/>
							</g>
							<g>
								<path style="fill:#F3D1A4;" d="M307.97,249.369c0.492,0,0.493-0.765,0-0.765
									C307.477,248.604,307.477,249.369,307.97,249.369L307.97,249.369z"/>
							</g>
							<g>
								<path style="fill:#F3D1A4;" d="M313,260.477c0.492,0,0.493-0.765,0-0.765C312.507,259.711,312.507,260.477,313,260.477
									L313,260.477z"/>
							</g>
							<g>
								<path style="fill:#F3D1A4;" d="M325.784,249.788c0.492,0,0.493-0.765,0-0.765
									C325.292,249.023,325.291,249.788,325.784,249.788L325.784,249.788z"/>
							</g>
							<g>
								<path style="fill:#F3D1A4;" d="M337.311,260.057c0.492,0,0.493-0.765,0-0.765
									C336.818,259.292,336.818,260.057,337.311,260.057L337.311,260.057z"/>
							</g>
							<g>
								<path style="fill:#F3D1A4;" d="M337.311,242.662c0.492,0,0.493-0.765,0-0.765
									C336.818,241.897,336.818,242.662,337.311,242.662L337.311,242.662z"/>
							</g>
							<g>
								<path style="fill:#F3D1A4;" d="M325.994,228.411c0.492,0,0.493-0.765,0-0.765
									C325.501,227.646,325.5,228.411,325.994,228.411L325.994,228.411z"/>
							</g>
							<g>
								<path style="fill:#F3D1A4;" d="M318.03,207.663c0.492,0,0.493-0.765,0-0.765
									C317.537,206.897,317.536,207.663,318.03,207.663L318.03,207.663z"/>
							</g>
							<g>
								<path style="fill:#F3D1A4;" d="M326.203,216.465c0.492,0,0.493-0.765,0-0.765C325.711,215.7,325.71,216.465,326.203,216.465
									L326.203,216.465z"/>
							</g>
							<g>
								<path style="fill:#F3D1A4;" d="M339.407,226.944c0.492,0,0.493-0.765,0-0.765
									C338.914,226.179,338.913,226.944,339.407,226.944L339.407,226.944z"/>
							</g>
							<g>
								<path style="fill:#F3D1A4;" d="M342.131,214.788c0.492,0,0.493-0.765,0-0.765
									C341.639,214.023,341.638,214.788,342.131,214.788L342.131,214.788z"/>
							</g>
							<g>
								<path style="fill:#F3D1A4;" d="M351.772,210.178c0.493,0,0.493-0.765,0-0.765
									C351.279,209.412,351.279,210.178,351.772,210.178L351.772,210.178z"/>
							</g>
							<g>
								<path style="fill:#F3D1A4;" d="M351.772,223.8c0.493,0,0.493-0.765,0-0.765C351.279,223.035,351.279,223.8,351.772,223.8
									L351.772,223.8z"/>
							</g>
							<g>
								<path style="fill:#F3D1A4;" d="M350.724,238.68c0.492,0,0.493-0.765,0-0.765C350.232,237.915,350.231,238.68,350.724,238.68
									L350.724,238.68z"/>
							</g>
							<g>
								<path style="fill:#F3D1A4;" d="M351.353,247.692c0.492,0,0.493-0.765,0-0.765
									C350.86,246.927,350.859,247.692,351.353,247.692L351.353,247.692z"/>
							</g>
							<g>
								<path style="fill:#F3D1A4;" d="M362.251,252.932c0.492,0,0.493-0.765,0-0.765
									C361.758,252.167,361.758,252.932,362.251,252.932L362.251,252.932z"/>
							</g>
						</g>
						<g>
							<g>
								<path style="fill:#7359D1;" d="M312.112,223.915c0.248,3.213,0.495,6.426,0.743,9.639c0.2,2.595,0.188,5.367,1.029,7.859
									c0.348,1.031,0.865,2.019,1.64,2.795c0.887,0.888,2.047,1.4,3.259,1.673c1.382,0.312,2.821,0.397,4.23,0.509
									c1.596,0.127,3.194,0.219,4.794,0.286c3.609,0.152,7.222,0.178,10.833,0.204c0.493,0.004,0.493-0.762,0-0.765
									c-6.036-0.044-12.122-0.029-18.126-0.722c-1.311-0.152-2.676-0.409-3.784-1.17c-0.924-0.634-1.566-1.595-1.969-2.629
									c-0.892-2.29-0.896-4.867-1.082-7.285c-0.267-3.465-0.534-6.93-0.801-10.395
									C312.84,223.427,312.074,223.423,312.112,223.915L312.112,223.915z"/>
							</g>
							<g>
								<path style="fill:#7359D1;" d="M309.964,243.225c1.291,0.001,2.581,0.078,3.863,0.231c0.206,0.025,0.383-0.193,0.383-0.383
									c0-0.227-0.177-0.358-0.383-0.383c-1.282-0.153-2.572-0.23-3.863-0.231C309.471,242.459,309.471,243.225,309.964,243.225
									L309.964,243.225z"/>
							</g>
							<g>
								<path style="fill:#7359D1;" d="M348.951,224.283c1.368,6.468,2.746,13.012,2.692,19.656
									c-0.015,1.906-0.152,3.81-0.439,5.694c-0.073,0.482,0.664,0.689,0.738,0.203c1.022-6.709,0.174-13.483-1.095-20.097
									c-0.363-1.891-0.759-3.775-1.158-5.659C349.587,223.598,348.849,223.802,348.951,224.283L348.951,224.283z"/>
							</g>
						</g>
					</g>
				</g>
			</g>
			<g>
				<g>
					<path style="fill:#FF9670;" d="M169.965,416.171c0,0-2.363,7.09-1.091,16.09c0,0-7.612,4.023-15.072-1.091
						c0,0,6.198-4.716,4.255-17.362"/>
					<path style="fill:#D03711;" d="M136.452,439.887c0.223-0.464,0.568-0.867,1.032-1.131c2.53-1.438,8.692-4.849,18.006-9.428
						c0,0,5.217,1.75,13.14,0.753c0,0,0.841,5.193,0.746,9.493C164.526,439.788,145.806,440.54,136.452,439.887z"/>
					<path style="fill:#400E09;" d="M169.377,439.573c-0.023,1.072-0.066,2.097-0.14,2.977h-33.056v-1.555
						c0-0.394,0.106-0.766,0.27-1.108C145.806,440.54,164.526,439.788,169.377,439.573z"/>
					<circle style="fill:#400E09;" cx="146.797" cy="434.738" r="0.585"/>
					<path style="fill:#400E09;" d="M151.765,432.861c0,0.323-0.262,0.585-0.585,0.585c-0.323,0-0.585-0.262-0.585-0.585
						c0-0.323,0.262-0.585,0.585-0.585C151.503,432.276,151.765,432.538,151.765,432.861z"/>
					<path style="fill:#400E09;" d="M156.087,430.575c0,0.323-0.262,0.585-0.585,0.585c-0.323,0-0.585-0.262-0.585-0.585
						c0-0.323,0.262-0.585,0.585-0.585C155.826,429.989,156.087,430.251,156.087,430.575z"/>
				</g>
				<g>
					<path style="fill:#FF9670;" d="M202.37,414.483c0,0,0.667,12.766-1.068,18.523c0,0,7.612,4.022,15.072-1.091
						c0,0-5.335-1.842-2.858-22.387"/>
					<path style="fill:#D03711;" d="M233.724,440.633c-0.223-0.464-0.568-0.867-1.032-1.131c-2.53-1.438-8.692-4.849-18.006-9.428
						c0,0-5.217,1.75-13.14,0.753c0,0-0.841,5.193-0.747,9.493C205.651,440.534,224.37,441.286,233.724,440.633z"/>
					<path style="fill:#400E09;" d="M200.799,440.319c0.024,1.072,0.067,2.097,0.14,2.976h33.056v-1.556
						c0-0.394-0.106-0.766-0.27-1.108C224.37,441.286,205.651,440.534,200.799,440.319z"/>
					<path style="fill:#400E09;" d="M215.943,431.699c0,0.323-0.262,0.585-0.585,0.585c-0.323,0-0.585-0.262-0.585-0.585
						c0-0.323,0.262-0.585,0.585-0.585C215.681,431.113,215.943,431.375,215.943,431.699z"/>
					<path style="fill:#400E09;" d="M225.946,436.522c0,0.323-0.262,0.585-0.585,0.585c-0.323,0-0.585-0.262-0.585-0.585
						c0-0.323,0.262-0.585,0.585-0.585C225.684,435.936,225.946,436.199,225.946,436.522z"/>
					<path style="fill:#400E09;" d="M220.444,434.235c0,0.323-0.262,0.585-0.585,0.585c-0.323,0-0.585-0.262-0.585-0.585
						c0-0.323,0.262-0.585,0.585-0.585C220.182,433.65,220.444,433.912,220.444,434.235z"/>
				</g>
				<g>
					<g>
						<path style="fill:#FF9670;" d="M192.928,160.573c1.568,6.169,0.283,12.809-2.475,18.546c-0.341,0.71-0.712,1.52-0.423,2.253
							c0.214,0.543,0.741,0.891,1.252,1.174c4.863,2.697,11.158,2.596,15.932-0.255c0.152-0.091,0.312-0.194,0.38-0.358
							c0.136-0.324-0.146-0.658-0.383-0.919c-1.313-1.449-0.625-3.174-1.195-5.044c-2.444-8.017-0.935-15.313,1.897-23.008"/>
					</g>
					<g>
						<path style="fill:#FC7F51;" d="M193.546,167.878c2.442-0.572,5.254-2.106,7.253-3.668c2.215-1.731,3.62-3.477,4.413-5.302
							c0.281-0.646,0.718-1.17,1.248-1.587c0.425-1.444,0.915-2.894,1.455-4.359l-14.986,7.611
							C193.41,162.469,193.563,165.934,193.546,167.878C193.555,167.876,193.537,167.881,193.546,167.878z"/>
					</g>
				</g>
				<g>
					<g>
						<path style="fill:#FF9670;" d="M196.901,129.891c-1.655-0.251-3.319,0.389-4.77,1.224c-3.75,2.157-6.658,5.735-8.004,9.846
							c-0.536,1.639-0.831,3.348-1.06,5.057c-0.539,4.03-1.106,5.583-0.933,9.646c0.054,1.273,1.08,6.324,1.623,7.477
							c0.735,1.563,1.231,1.886,2.875,2.412c1.645,0.526,3.882,0.084,5.589-0.176c5.098-0.776,9.813-3.794,12.653-8.098
							c2.84-4.304,3.759-9.826,2.467-14.818"/>
					</g>
					<path style="fill:#2D0E0B;" d="M220.333,133.245c-2.305,0.17-4.549,0.709-6.686,1.562c0.241-0.896,3.76-5.684,1.343-4.722
						c-0.232,1.29-4.291,6.067-2.178,6.151C213.766,134.936,222.683,134.566,220.333,133.245z"/>
					<g>
						<path style="fill:#FC7F51;" d="M198.501,156.584c-0.346,1.403-2.296,2.129-4.357,1.621c-2.061-0.508-3.452-2.056-3.106-3.459
							c0.346-1.403,2.297-2.129,4.358-1.621C197.456,153.632,198.847,155.181,198.501,156.584z"/>
						<g>
							<path style="fill:#2D0E0B;" d="M192.145,146.814c2.106-0.1,4.795-0.021,5.892,1.18c0.545,0.597,1.206,0.465,0.706-0.181
								c-1.551-2.004-3.645-2.204-6.716-2.297c-0.334-0.01-0.605,0.353-0.571,0.735C191.485,146.567,191.81,146.905,192.145,146.814
								L192.145,146.814z"/>
						</g>
						<g>
							<path style="fill:#2D0E0B;" d="M186.865,144.007c-1.165-0.712-2.171-1.284-3.146-1.624c-0.054,0.179-0.112,0.355-0.169,0.531
								c-0.008,0.16-0.03,0.316-0.05,0.473c0.901,0.431,1.811,1.029,2.593,1.595c0.221,0.247,0.656,0.147,0.844-0.09
								C187.165,144.604,187.138,144.173,186.865,144.007z"/>
						</g>
						<path style="fill:#2D0E0B;" d="M185.233,147.342c-0.131,0.531-0.485,0.9-0.792,0.825c-0.306-0.076-0.449-0.567-0.318-1.098
							c0.131-0.531,0.485-0.9,0.792-0.825C185.221,146.319,185.364,146.811,185.233,147.342z"/>
						<path style="fill:#2D0E0B;" d="M194.119,150.309c-0.148,0.599-0.605,1.002-1.021,0.9c-0.416-0.102-0.634-0.671-0.486-1.271
							c0.148-0.599,0.605-1.002,1.021-0.9C194.049,149.141,194.266,149.71,194.119,150.309z"/>
						<path style="fill:#F46E45;" d="M186.726,153.226c-0.326-0.171-0.59-0.412-0.82-0.688c1.249-0.736,2.151-2.037,2.365-3.475
							c0.029-0.195-0.055-0.391-0.26-0.445c-0.175-0.046-0.416,0.064-0.445,0.26c-0.21,1.412-1.108,2.626-2.4,3.236
							c-0.175,0.083-0.227,0.342-0.131,0.499c0.324,0.528,0.775,0.957,1.324,1.244C186.775,154.074,187.142,153.444,186.726,153.226
							z"/>
						<path style="fill:#E53E3E;" d="M184.43,156.28c0,0,1.645,1.478,4.129,1.122C188.559,157.402,184.72,159.493,184.43,156.28z"/>
					</g>
					<g>
						<path style="fill:#2D0E0B;" d="M217.981,144.508c-0.269-3.809-0.644-7.149-3.976-9.015l-0.493-0.538
							c-0.339-2.316-1.73-4.391-3.527-5.89c-1.234-1.029-2.656-1.797-4.143-2.416c-7.11-2.537-17.067,0.016-22.741,1.924
							c0.455,0.691,0.91,1.381,1.366,2.072c-1.936,0.049-3.876-0.088-5.785-0.407c0.873,3.382,2.126,6.742,4.327,9.454
							c2.622,3.23,6.395,4.556,10.357,5.824c3.962,1.269,6.445,2.597,10.567,3.161c0.461,0.063-0.218,5.846,0.177,6.094
							c0.672,0.422,2.88-3.261,3.059-2.488c1.054,4.555-3.408,7.862-2.213,12.382c3.461-1.092,8.445-5.693,10.354-9
							C217.217,152.357,218.249,148.318,217.981,144.508z"/>
					</g>
					<g>
						<g>
							<path style="fill:#FF9670;" d="M203.306,155.568c0.512-1.505,2.735-4.76,4.06-5.639c0.389-0.258,0.816-0.483,1.28-0.539
								c0.464-0.056,0.973,0.084,1.266,0.448c0.225,0.279,0.299,0.649,0.336,1.006c0.153,1.474-0.215,2.997-1.025,4.237
								c-0.81,1.241-2.056,2.191-3.467,2.643c-0.795,0.255-1.823,0.281-2.299-0.404
								C203.114,156.824,203.203,156.161,203.306,155.568"/>
						</g>
						<g>
							<path style="fill:#FC7F51;" d="M204.795,153.962c-0.075,0.315-0.122,0.63-0.058,0.897c0.064,0.266,0.254,0.48,0.562,0.519
								c0.296,0.037,0.673-0.092,0.996-0.304c0.324-0.212,0.598-0.498,0.815-0.795c0.388-0.53,0.611-1.141,0.45-1.569
								c-0.161-0.428-0.78-0.594-1.38-0.273c-0.397,0.212-0.704,0.576-0.966,0.925"/>
						</g>
					</g>
				</g>
				<g>
					<path style="fill:#400E09;" d="M214.268,244.372c0,0,10.829,16.727,12.23,36.26c1.402,19.533-2.872,144.416-2.872,144.416
						l-25.468,0.908c0,0,1.926-108.815-0.496-122.313l-24.069,121.42l-25.705-0.701c0,0,21.562-165.337,30.083-178.695
						L214.268,244.372z"/>
					<g style="opacity:0.5;">
						<path style="fill:#F3D1A4;" d="M192.364,265.328c-0.535,3.488-0.771,7.017-0.672,10.545c0.086,3.054,0.411,6.322,2.277,8.862
							c0.906,1.232,2.089,2.205,3.535,2.728c0.194,0.07,0.42-0.08,0.471-0.267c1.837-6.843,1.015-14.015,2.246-20.947
							c0.086-0.482-0.652-0.688-0.738-0.203c-1.231,6.93-0.411,14.109-2.247,20.947c0.157-0.089,0.314-0.178,0.471-0.267
							c-2.596-0.94-4.107-3.504-4.726-6.068c-0.363-1.505-0.471-3.056-0.519-4.599c-0.051-1.638-0.032-3.277,0.056-4.913
							c0.102-1.88,0.297-3.753,0.583-5.614C193.176,265.049,192.438,264.842,192.364,265.328L192.364,265.328z"/>
					</g>
					<g style="opacity:0.5;">
						<path style="fill:#F3D1A4;" d="M208.589,264.179c3.333,5.2,6.972,10.692,12.915,13.128c0.456,0.187,0.654-0.553,0.203-0.738
							c-5.731-2.348-9.251-7.773-12.458-12.776C208.985,263.379,208.322,263.762,208.589,264.179L208.589,264.179z"/>
					</g>
					<g style="opacity:0.5;">
						<path style="fill:#F3D1A4;" d="M171.689,273.874c2.558-1.159,4.605-3.141,6.472-5.193c2.021-2.222,3.867-4.602,5.525-7.107
							c0.273-0.412-0.39-0.795-0.661-0.386c-1.623,2.451-3.427,4.777-5.406,6.952c-1.828,2.009-3.812,3.939-6.317,5.073
							C170.855,273.416,171.244,274.076,171.689,273.874L171.689,273.874z"/>
					</g>
					<g style="opacity:0.5;">
						<path style="fill:#F3D1A4;" d="M199.297,308.734c1.814,14.669,3.174,29.394,4.073,44.148
							c0.894,14.679,1.334,29.386,1.318,44.092c-0.009,8.286-0.164,16.572-0.461,24.853c-0.018,0.492,0.748,0.492,0.765,0
							c0.53-14.772,0.604-29.559,0.216-44.335c-0.386-14.701-1.228-29.39-2.523-44.039c-0.73-8.254-1.605-16.495-2.622-24.719
							C200.002,308.252,199.236,308.246,199.297,308.734L199.297,308.734z"/>
					</g>
					<g style="opacity:0.5;">
						<path style="fill:#F3D1A4;" d="M166.427,419.005c0.836-7.85,2.121-15.645,3.663-23.386c1.543-7.748,3.34-15.443,5.196-23.121
							c1.774-7.341,3.546-14.685,5.448-21.994c1.865-7.168,3.884-14.301,6.27-21.314c2.388-7.02,5.149-13.92,8.477-20.55
							c0.419-0.834,0.846-1.662,1.282-2.487c0.23-0.435-0.431-0.822-0.661-0.386c-3.464,6.557-6.357,13.402-8.848,20.384
							c-2.511,7.039-4.619,14.215-6.543,21.435c-1.949,7.315-3.724,14.676-5.513,22.031c-1.868,7.676-3.698,15.363-5.297,23.101
							c-1.597,7.724-2.962,15.501-3.904,23.334c-0.118,0.984-0.229,1.969-0.334,2.955
							C165.609,419.495,166.375,419.491,166.427,419.005L166.427,419.005z"/>
					</g>
				</g>
				<g>
					<g>
						<path style="fill:#1E976F;" d="M178.693,178.52c-3.404,1.209-5.936,4.812-8.096,8.404c-3.792,6.307-7.073,13.12-9.774,20.294
							c-0.2,0.532-0.402,1.123-0.284,1.694c0.121,0.587,0.543,0.975,0.937,1.311c5.033,4.298,10.176,8.382,15.42,12.241
							c0.276,0.203,0.616,0.408,0.894,0.21c0.225-0.16,0.306-0.518,0.364-0.839c2.376-13.051,1.944-26.639,1.499-40.03"/>
					</g>
					<g>
						<path style="fill:#1E976F;" d="M220.424,177.779c4.376,1.209,7.629,4.811,10.405,8.403c4.874,6.307,9.091,13.12,12.562,20.294
							c0.257,0.532,0.517,1.123,0.365,1.694c-0.156,0.587-0.698,0.975-1.204,1.311c-6.468,4.298-13.079,8.382-19.818,12.241
							c-0.354,0.203-0.792,0.408-1.149,0.21c-0.289-0.16-0.393-0.518-0.468-0.839c-3.053-13.051-2.498-26.639-1.926-40.03"/>
					</g>
					<g>
						<g>
							<g>
								<path style="fill:#1E976F;" d="M192.549,173.395c2.684,1.078,8.142,1.557,10.849,0.539c0.645-0.242,1.29-0.547,1.979-0.56
									c0.497-0.009,0.983,0.134,1.459,0.277c4.186,1.252,8.372,2.503,12.558,3.755c0.584,0.175,1.203,0.372,1.592,0.841
									c0.389,0.469,0.467,1.114,0.53,1.719c0.433,4.149,0.865,8.298,1.298,12.446c0.381,3.649,0.762,7.303,0.807,10.972
									c0.046,3.65-0.241,7.294-0.465,10.938c-0.921,14.924-0.811,29.89-0.98,44.842c-0.007,0.63-0.061,1.355-0.568,1.729
									c-0.259,0.19-0.589,0.248-0.906,0.298c-16.058,2.547-32.448,0.469-48.573-1.611c0.284-3.828,0.567-7.669,0.354-11.502
									c-0.198-3.571,0.614-17.683,0.342-21.249c-0.488-6.388-1.272-2.223-0.616-8.596c1.24-12.045,2.48-24.089,3.721-36.133
									c0.093-0.903,0.202-1.85,0.725-2.592c0.547-0.776,1.456-1.199,2.329-1.573C183.37,176.052,187.912,174.532,192.549,173.395"
									/>
							</g>
							<g style="opacity:0.5;">
								<path style="fill:#06593B;" d="M222.326,236.977c-0.887,4.27-1.951,8.802-4.442,12.456
									c-4.181,6.134-12.936,6.619-19.687,6.996c-6.821,0.381-16.315,1.063-21.735-3.929c-1.79-1.649-3.062-3.599-4.012-5.717
									c0.002,0.515,0.012,0.953,0.031,1.294c0.213,3.833-0.071,7.674-0.354,11.502c16.125,2.08,32.515,4.158,48.573,1.611
									c0.317-0.05,0.647-0.108,0.906-0.298c0.508-0.373,0.561-1.098,0.568-1.729c0.085-7.48,0.1-14.963,0.209-22.443
									C222.367,236.807,222.344,236.891,222.326,236.977z"/>
							</g>
							<g style="opacity:0.5;">
								<path style="fill:#06593B;" d="M243.392,206.477c-2.993-6.186-6.544-12.102-10.589-17.658
									c1.154,3.815,1.657,7.888,1.891,11.722c0.467,7.661-4.726,14.099-9.706,19.867c5.959-3.472,11.822-7.109,17.566-10.926
									c0.506-0.336,1.048-0.724,1.204-1.311C243.908,207.6,243.649,207.008,243.392,206.477z"/>
							</g>
						</g>
						<g>
							<path style="fill:#06593B;" d="M163.928,208.165c0.592-1.534,1.285-3.027,2.069-4.473c0.235-0.433-0.426-0.82-0.661-0.386
								c-0.815,1.504-1.53,3.06-2.146,4.656c-0.074,0.193,0.082,0.42,0.267,0.471C163.673,208.491,163.853,208.358,163.928,208.165
								L163.928,208.165z"/>
						</g>
						<g>
							<g>
								<path style="fill:#06593B;" d="M221.113,214.317c0.939,1.787,1.802,3.612,2.588,5.471c0.081,0.192,0.361,0.23,0.523,0.137
									c0.198-0.113,0.217-0.334,0.137-0.524c-0.786-1.859-1.649-3.684-2.588-5.471
									C221.544,213.494,220.884,213.881,221.113,214.317L221.113,214.317z"/>
							</g>
							<g>
								<path style="fill:#06593B;" d="M224.933,211.842c1.039,1.711,1.975,3.483,2.804,5.305c0.204,0.448,0.863,0.059,0.661-0.386
									c-0.829-1.823-1.765-3.594-2.804-5.306C225.339,211.035,224.677,211.419,224.933,211.842L224.933,211.842z"/>
							</g>
							<g>
								<path style="fill:#06593B;" d="M229.127,208.665c0.633,1.83,1.415,3.606,2.341,5.306c0.236,0.433,0.897,0.047,0.661-0.386
									c-0.895-1.643-1.652-3.355-2.263-5.123C229.705,207.998,228.966,208.197,229.127,208.665L229.127,208.665z"/>
							</g>
							<g>
								<path style="fill:#06593B;" d="M232.924,206.364c0.883,1.469,1.676,2.99,2.376,4.554c0.084,0.189,0.359,0.234,0.524,0.137
									c0.194-0.114,0.222-0.334,0.137-0.524c-0.7-1.564-1.493-3.085-2.376-4.554C233.332,205.556,232.67,205.941,232.924,206.364
									L232.924,206.364z"/>
							</g>
							<g>
								<path style="fill:#06593B;" d="M237.692,203.867c0.798,1.361,1.511,2.773,2.122,4.229c0.08,0.19,0.253,0.327,0.471,0.267
									c0.18-0.049,0.348-0.279,0.267-0.471c-0.636-1.518-1.366-2.992-2.199-4.412
									C238.104,203.056,237.442,203.441,237.692,203.867L237.692,203.867z"/>
							</g>
						</g>
						<g>
							<g>
								<path style="fill:#06593B;" d="M175.186,252.104c-0.217,2.048-0.435,4.095-0.652,6.143c-0.052,0.489,0.714,0.486,0.765,0
									c0.217-2.047,0.435-4.095,0.652-6.143C176.003,251.615,175.237,251.618,175.186,252.104L175.186,252.104z"/>
							</g>
							<g>
								<path style="fill:#06593B;" d="M180.397,258.461c0.367-2.099,0.573-4.222,0.609-6.353c0.008-0.493-0.757-0.493-0.765,0
									c-0.035,2.062-0.227,4.117-0.582,6.149C179.575,258.739,180.312,258.946,180.397,258.461L180.397,258.461z"/>
							</g>
							<g>
								<path style="fill:#06593B;" d="M185.803,258.932c0.154-2.276,0.309-4.552,0.463-6.829c0.033-0.492-0.732-0.49-0.765,0
									c-0.154,2.276-0.309,4.553-0.463,6.829C185.005,259.423,185.77,259.421,185.803,258.932L185.803,258.932z"/>
							</g>
							<g>
								<path style="fill:#06593B;" d="M192.358,259.384c-0.198-2.334-0.026-4.677,0.524-6.955c0.115-0.479-0.622-0.683-0.738-0.203
									c-0.565,2.341-0.755,4.759-0.551,7.159C191.634,259.871,192.4,259.876,192.358,259.384L192.358,259.384z"/>
							</g>
							<g>
								<path style="fill:#06593B;" d="M198.148,260.18c0.087-2.462,0.085-4.927-0.005-7.389c-0.018-0.491-0.784-0.493-0.765,0
									c0.091,2.462,0.092,4.927,0.005,7.389C197.365,260.672,198.131,260.672,198.148,260.18L198.148,260.18z"/>
							</g>
							<g>
								<path style="fill:#06593B;" d="M204.884,259.841c0.279-2.149,0.374-4.316,0.284-6.481c-0.02-0.491-0.786-0.493-0.765,0
									c0.089,2.165-0.006,4.332-0.284,6.481c-0.027,0.207,0.195,0.381,0.383,0.383
									C204.73,260.226,204.858,260.045,204.884,259.841L204.884,259.841z"/>
							</g>
							<g>
								<path style="fill:#06593B;" d="M210.466,260.409c0.161-2.389,0.323-4.779,0.484-7.168c0.033-0.492-0.732-0.49-0.765,0
									c-0.161,2.389-0.323,4.779-0.484,7.168C209.667,260.901,210.433,260.899,210.466,260.409L210.466,260.409z"/>
							</g>
							<g>
								<path style="fill:#06593B;" d="M216.38,253.304c0,2.119,0,4.237,0,6.356c0,0.417,0.765,0.418,0.765,0
									c0-2.119,0-4.237,0-6.356C217.145,252.887,216.38,252.886,216.38,253.304L216.38,253.304z"/>
							</g>
						</g>
						<g>
							<g>
								<path style="fill:#06593B;" d="M189.864,178.595c0.875-1.001,1.689-2.056,2.436-3.156c0.116-0.171,0.033-0.424-0.137-0.523
									c-0.189-0.111-0.407-0.034-0.524,0.137c-0.711,1.047-1.484,2.048-2.316,3.001c-0.136,0.156-0.153,0.388,0,0.541
									C189.462,178.733,189.728,178.751,189.864,178.595L189.864,178.595z"/>
							</g>
							<g>
								<path style="fill:#06593B;" d="M194.665,177.07c-0.151,1.251-0.303,2.501-0.454,3.752c-0.025,0.206,0.194,0.383,0.383,0.383
									c0.227,0,0.358-0.177,0.383-0.383c0.152-1.251,0.303-2.501,0.454-3.752c0.025-0.206-0.194-0.383-0.383-0.383
									C194.82,176.687,194.69,176.864,194.665,177.07L194.665,177.07z"/>
							</g>
							<g>
								<path style="fill:#06593B;" d="M198.698,177.505c0.23,1.245,0.356,2.506,0.385,3.772c0.011,0.492,0.777,0.493,0.765,0
									c-0.03-1.334-0.17-2.663-0.412-3.975c-0.037-0.203-0.284-0.319-0.471-0.267C198.751,177.093,198.66,177.301,198.698,177.505
									L198.698,177.505z"/>
							</g>
							<g>
								<path style="fill:#06593B;" d="M202.565,176.579c0.681,1.136,1.283,2.32,1.785,3.546c0.078,0.191,0.254,0.327,0.471,0.267
									c0.181-0.05,0.346-0.278,0.267-0.471c-0.529-1.288-1.146-2.534-1.863-3.728C202.972,175.77,202.311,176.155,202.565,176.579
									L202.565,176.579z"/>
							</g>
							<g>
								<path style="fill:#06593B;" d="M205.981,175.035c1.365,0.909,2.616,1.974,3.737,3.17c0.338,0.36,0.878-0.182,0.541-0.541
									c-1.165-1.243-2.474-2.346-3.892-3.29C205.956,174.1,205.572,174.763,205.981,175.035L205.981,175.035z"/>
							</g>
						</g>
					</g>
				</g>
				<g>
					<path style="fill:#FF9670;" d="M176.693,181.392c1.924-7.983,3.651-13.051,7.844-20.111c0.428-0.721,1.276-1.536,1.959-1.049
						c0.506,0.361,0.399,1.129,0.237,1.729c-0.516,1.912-1.032,3.824-1.548,5.735c-0.126,0.466-0.253,0.947-0.191,1.426
						c0.172,1.319,1.601,2.013,2.792,2.604c1.192,0.591,2.495,1.701,2.133,2.981c-0.151,0.534-0.57,0.942-0.953,1.345
						c-2.929,3.086-4.494,7.239-5.332,11.411c-0.838,4.171-2.907,14.176-3.479,18.392c-1.44,10.614-3.603,18.496-10.487,23.8
						c-0.867,0.668-2.283,0.979-3.319,0.625c-0.443-0.151-0.787-0.5-1.091-0.855c-2.571-3.008-3.396-7.207-3.051-11.149
						c0.344-3.942,1.74-7.707,3.177-11.394C168.099,199.913,173.18,190.938,176.693,181.392"/>
				</g>
				<g>
					<path style="fill:#FF9670;" d="M244.577,231.748c-1.56-6.659-3.8-13.156-6.642-19.377l-11.81,7.304
						c1.654,3.6,3.196,7.251,4.61,10.952c0.644,1.685,1.272,3.465,1.021,5.251c-0.191,1.354-0.873,2.583-1.555,3.769
						c-5.073,8.822-10.83,17.251-17.202,25.187c-0.37,0.461-0.762,0.979-0.732,1.569c0.023,0.443,0.283,0.834,0.533,1.199
						c1.074,1.566,2.148,3.132,3.222,4.699c0.185,0.27,0.419,0.568,0.746,0.578c0.311,0.01,0.557-0.247,0.76-0.482
						c5.144-5.988,10.288-11.976,15.432-17.965c3.777-4.396,7.581-8.833,10.384-13.906c0.835-1.51,1.59-3.119,1.717-4.84
						C245.159,234.361,244.88,233.04,244.577,231.748z"/>
				</g>
			</g>
		</g>
	</g>
</g>
</svg>
